<svg id="Calque_1" data-name="Calque 1" xmlns="http://www.w3.org/2000/svg" viewBox="0 0 357.23 94.69"><defs><style>.cls-1,.cls-2,.cls-8{fill:#fff;}.cls-1{stroke:#1a181b;}.cls-3{fill:#024290;}.cls-4{fill:#1f4491;}.cls-5{fill:#e0051b;}.cls-6{fill:#9c9e9f;}.cls-7{fill:#1a181b;}.cls-8{stroke:#181716;}.cls-9{fill:#181716;}</style></defs><title>Plan de travail 1</title><rect class="cls-1" x="0.65" y="0.64" width="137.21" height="93.57"/><polygon class="cls-2" points="116.43 20.6 116.43 52.5 22.14 52.5 22.12 20.6 116.43 20.6"/><path class="cls-3" d="M50.25,40.33a11.9,11.9,0,0,0-2.52.71,16.17,16.17,0,0,1,5.54.8,8.67,8.67,0,0,1,1.8.85,4,4,0,0,0,.72.58,1.5,1.5,0,0,0,1.23.08h.35a6,6,0,0,0,3-1.37c0,.06.07.06.14.06a5,5,0,0,1-.64,1.73c0,.07-.08.21.06.28H60c-.08,0-.15,0-.15.07s.22,0,.3.14a1.5,1.5,0,0,0-.94.45c0,.07.14.07.21.07-.14.14-.36.07-.43.22a.27.27,0,0,0,.15.07c-.07,0-.15,0-.15.08v.21c-.21,0-.28.15-.44.21.29.22.51,0,.8,0-.8.29-1.43.72-2.24.94-.13,0,0,.21-.13.21.22.16.35-.07.57-.07-1,.58-2,1.09-3.1,1.74a.5.5,0,0,0-.14.29h-.29c-.14.08-.07.29-.21.43.35.22.79-.28,1,0,.07,0-.14.08-.29.08s-.08.14-.15.14H54.2c-.14.14-.28.21-.28.42-.15,0-.29,0-.36.14,1.59-.21,3.24-.06,4.75-.86a11.17,11.17,0,0,0,3.17-2.38.26.26,0,0,1,.07.15,3.09,3.09,0,0,1-1.22,1.65c-.44.22-.72.58-1.08.73l-.65.43c-2.66.92-5.83.51-8.13,2.3,0-.08-.08-.08-.15-.08-.15.16-.36.23-.43.37s.22.07.29.07a4.89,4.89,0,0,1,1.37-.65c-.58.29-1.13.87-1.73.87H46.22c.71-.43,1.44-.94,2.22-1.37a1.12,1.12,0,0,0-.66-.14c-.35.07-.78-.15-1.15,0-1.07.49-2.52.36-3.09,1.51H22.14l0-31.9H64.92a6.09,6.09,0,0,0-2.29,1.51,6.32,6.32,0,0,0-1.37,2.3,6.21,6.21,0,0,0-2,2.31c-.65,1.22-1.58,2.3-1.44,3.67.15,1.15.43,2.23.65,3.46a6.88,6.88,0,0,0,.3,1.22c.14.43,0,.94.21,1.3s.07.5.36.65v.28c.06.07.06.14.21.14v.29a11.7,11.7,0,0,1,1.66,2.16c.14.43-.73.21-1.09.07a8.43,8.43,0,0,1-1.73-1.44.27.27,0,0,0-.07.15c.29.5,1.37,1.15.8,1.5-.28.15-.65-.21-.94.08-.08.14,0,.28,0,.43-.43-.29-.86-.15-1.3-.29s-.36-.65-.71-.65a19.21,19.21,0,0,0-2.74-.5,13.35,13.35,0,0,0-3.81-.16,4.21,4.21,0,0,0-2.74,1.81v.23c.5.06.72-.37,1.16-.51.71-.15,1.37-.44,2.09-.58a12,12,0,0,1,3.09-.44,2.62,2.62,0,0,1,.73,0,10.72,10.72,0,0,0-3.67.72"/><path class="cls-2" d="M46.22,43.71c-.22.07-.44.22-.37.36.21.3.65-.07,1-.07-.43.15-.94.07-1.3.44.29.22.58.07.86.07,0,.15.15.15.21.22a1.27,1.27,0,0,0-.72.65c-.15.36-.51.5-.72.79v.21a14.18,14.18,0,0,0-2.09,1.88c.08,0,.08.07.08.15-.15.21-.44.29-.51.5s0,.15.07.15c.86-.27,1.51-.93,2.3-1.22.57-.14,1-.5,1.52-.65.35-.07.79-.22,1.15-.29,0,.07,0,.15.06.15h.59c-.08.15-.36.07-.29.15s.65.15.94,0a1.18,1.18,0,0,1,.72-.15c.07,0,.07-.15.07-.21a1.7,1.7,0,0,0,.57.07,19.67,19.67,0,0,0,5-1.51c-1.87-1.44-4.25-1.94-6.47-2.6.21,0,.43.22.65,0-.36-.28-.79-.15-1.15-.35.07,0,.22.07.28-.07a6.43,6.43,0,0,0-1.73-.43.71.71,0,0,0,.58-.73c0-.07-.15-.07-.22-.07a3.82,3.82,0,0,0-1.79,2.17c.5.28,1.08.06,1.58.14a1.8,1.8,0,0,1-.86.28"/><path class="cls-2" d="M43.26,40.9a9.42,9.42,0,0,1-2.45,2,21.56,21.56,0,0,1-2.31,3.66.26.26,0,0,0,.08.15,24.6,24.6,0,0,1,5.54-5c.15-.07-.21.21.08.15.93-.21,1.22-1.16,1.65-1.88.57-.94,1.59-1.3,2.31-2.09a.26.26,0,0,1-.08.22.3.3,0,0,0,.21.06c.3-.21.65-.15.87-.42a2.8,2.8,0,0,0-1.87-.08,13.85,13.85,0,0,0-4,3.16"/><path class="cls-2" d="M44.34,42.27c.07-.13.15-.14.22-.29s0-.14-.07-.14a.9.9,0,0,0-.58.65c0,.06.07.06.15.06a.48.48,0,0,0,.28-.29"/><path class="cls-2" d="M50.11,47.74c-.29.15-.8.15-.86.5-.07.15.21.07.36.07.5-.21,1.08,0,1.51-.43-.15-.15-.36-.07-.5-.3-.15-.06-.36.08-.5.15"/><path class="cls-4" d="M57.89,51.57a11.35,11.35,0,0,0,1.29-.5v.15c1.08-.44,1.87-1.37,2.95-1.73.08,0,.22.14.36.07a2.9,2.9,0,0,1,2.3-1.08c0,.06,0,.14.07.14s.15,0,.15-.08l-.87.65c-.06.07,0,.14.07.14.36-.14.57-.43.94-.57-.08.08-.08.22-.14.3a29.67,29.67,0,0,0-3.46,3.44H51.77c1.44-.21,2.88-.71,4.33-.86a7.63,7.63,0,0,0,1.8-.07"/><path class="cls-5" d="M86.32,48a2,2,0,0,0,.07-1.6c-.43-.64.43-.86.72-1.29s-.15-.58-.22-.94c-.07-.15-.36-.07-.5-.29.5-.21,1.29-.64.93-1.29-.21-.35-.57-.93-.14-1.29s1.29-.21,1.51-.72c.36-.87-.43-1.58-.87-2.3A12,12,0,0,0,87,37.08a6.08,6.08,0,0,1-.79-1.51c-.23-.57.07-1.08.07-1.66a10.16,10.16,0,0,0-.5-3.23c-.22-.51-.29-1.1-.51-1.6a2.28,2.28,0,0,0-.36-.86.62.62,0,0,1,0-.51,8.66,8.66,0,0,0,.87-.72.83.83,0,0,0-.29-1.09c-.51-.21-.44.51-.79.65h-.22c-.07-.22.08-.28.22-.43s0-.22-.07-.22c-.28,0-.58-.06-.65-.21a5.88,5.88,0,0,0-2.81-1.94,3.48,3.48,0,0,0,.87.14,2.65,2.65,0,0,0,1.51-.14c.36-.14.43-.72.57-1.08a1.08,1.08,0,0,0-.22-.93,4.61,4.61,0,0,0-1.41-1.15h33.89V52.5H76a6.92,6.92,0,0,1,2.52-3.73,3.6,3.6,0,0,1,1-.3,31.68,31.68,0,0,1,3.66.5,1,1,0,0,1,.44.15A3,3,0,0,0,85,49,1.78,1.78,0,0,0,86.32,48"/><path class="cls-6" d="M83.59,33.78a4.73,4.73,0,0,0-1.23,0,9.68,9.68,0,0,0-1.58.42,5.08,5.08,0,0,1,1.36-.71,5.59,5.59,0,0,1,1.08-.29,2.46,2.46,0,0,1,1.23-.08c.35.15.93.15,1,.37.15.43-.22.87-.65,1.14-.07.15.22.23.22.37a.49.49,0,0,1-.43.21,2.67,2.67,0,0,0-.43.44c.14,0,0,.22.14.22-.29.36.15,1.07-.29,1.21a3.13,3.13,0,0,1-1.66,0c.29-.07.65.07.86-.21v-.29c0-.08-.07-.08-.13-.08a.22.22,0,0,1-.14.08.32.32,0,0,0-.22-.29,1.22,1.22,0,0,1-1.08-.42.94.94,0,0,1,.65-.08c.21,0,.13-.36.35-.5h.22c.44-.58,1.3-.71,1.44-1.3,0-.16-.43-.16-.71-.21"/><path class="cls-7" d="M26.95,74.9a1.22,1.22,0,0,1-.73-.18,3.48,3.48,0,0,1-.83-1.1c-.32-.55-.68-1.14-1-1.64H24v.5c0,.25,0,.51,0,.76a2.88,2.88,0,0,0,.09.93.6.6,0,0,0,.57.39v.26l-.22,0h-2l-.23,0v-.26a.63.63,0,0,0,.46-.18.92.92,0,0,0,.19-.51,11.44,11.44,0,0,0,0-1.39V70.89a6.87,6.87,0,0,0-.11-1.68c-.07-.25-.25-.35-.58-.39v-.26c.19,0,.38,0,.56,0,.49,0,.64,0,1.22,0l1,0a2.23,2.23,0,0,1,1.34.31,1.59,1.59,0,0,1,.59,1.23,1.86,1.86,0,0,1-1.38,1.72c.36.45.64.91,1,1.41a6.37,6.37,0,0,0,.84,1.13.71.71,0,0,0,.39.24v.26a3.88,3.88,0,0,1-.78.08M24.53,69a3,3,0,0,0-.56.07c0,.55,0,1.56,0,2.33l.4,0a1.19,1.19,0,0,0,1.3-1.22A1.14,1.14,0,0,0,24.53,69"/><path class="cls-7" d="M30,69.14l-.37-.21.77-1.14.89.16Zm1.72,5.57c-.07.12-.15.14-.57.14l-.78,0-1.12,0c-.37,0-.75,0-1.12,0V74.6a.53.53,0,0,0,.53-.57,8.61,8.61,0,0,0,0-.88V71a2.16,2.16,0,0,0-.09-.77.47.47,0,0,0-.47-.32v-.21H31.8c0,.23,0,.46,0,.68s0,.37,0,.55h-.28c-.05-.6-.31-.76-1.24-.76H29.7c0,.32,0,.41,0,.87v.9H30c.8,0,1-.11,1.1-.54h.28a7.3,7.3,0,0,0,0,.77c0,.39,0,.64,0,.75h-.28c0-.43-.23-.54-1-.54h-.42c0,.47,0,1,0,1.47,0,.33.05.43.24.48a2.3,2.3,0,0,0,.54,0c.84,0,1.12-.19,1.31-.83l.3.06a5.1,5.1,0,0,1-.32,1.15"/><path class="cls-7" d="M35,72.51h-.21l-.17-.38c.73,0,1.13-.41,1.13-1a1,1,0,0,0-1-1.06,1.53,1.53,0,0,0-.29,0c0,.49,0,1,0,1.44v1.36a3.92,3.92,0,0,0,.09,1.4.47.47,0,0,0,.46.32v.22l-.18,0h-1.7l-.18,0V74.6a.54.54,0,0,0,.54-.57,10.87,10.87,0,0,0,0-1.15V71a2.15,2.15,0,0,0-.09-.77.48.48,0,0,0-.48-.32v-.22h.92c.4,0,.79,0,1.19,0,1.1,0,1.76.54,1.76,1.44A1.59,1.59,0,0,1,35,72.51"/><path class="cls-7" d="M42,70a1.09,1.09,0,0,0-.14.58c0,.34,0,.59,0,1.07,0,.17,0,.71,0,1.25a1.93,1.93,0,0,1-.31,1.2,2,2,0,0,1-1.72.78,2,2,0,0,1-1.21-.32A1.68,1.68,0,0,1,37.89,73c0-.83,0-1.19,0-1.47a7.07,7.07,0,0,0,0-1.2c0-.27-.2-.4-.52-.42v-.21h2.07v.21a.52.52,0,0,0-.44.22,1.32,1.32,0,0,0-.1.62c0,.48,0,1,0,1.46,0,1.33,0,1.59.27,1.87a1.18,1.18,0,0,0,.87.36,1.16,1.16,0,0,0,1.18-.78,4.41,4.41,0,0,0,.12-1.45v-.76c0-.88,0-1.17-.11-1.29a.49.49,0,0,0-.41-.24v-.21H42.4v.21A.53.53,0,0,0,42,70"/><path class="cls-7" d="M46.82,74.46a2.37,2.37,0,0,1-1.57.37L44,74.8h-.7l-.09,0V74.6c.36,0,.5-.22.54-.57a11,11,0,0,0,0-1.15V71.41a4,4,0,0,0-.09-1.23.49.49,0,0,0-.48-.32v-.22c.36,0,.57,0,1.07,0l1.56,0c.72,0,1.37.35,1.37,1.15,0,.61-.37,1-1.1,1.19a1.36,1.36,0,0,1,1.25,1.39,1.26,1.26,0,0,1-.52,1.09M45.12,70l-.42,0c0,.51,0,1.36,0,1.7l.35,0c.76,0,1.2-.32,1.2-.89s-.41-.85-1.1-.85m0,2.17-.49,0c0,.21,0,.25,0,.6v.46a2.36,2.36,0,0,0,.08.83c.06.19.24.28.57.28a.92.92,0,0,0,1-1,1.09,1.09,0,0,0-1.18-1.17"/><path class="cls-7" d="M51.71,74.72c-.07.11-.16.13-.55.13l-.58,0c-.48,0-.92,0-1.45,0s-.66,0-.89,0V74.6a.5.5,0,0,0,.38-.15c.14-.16.18-.36.18-.94V71.58a3.92,3.92,0,0,0-.09-1.4.48.48,0,0,0-.47-.32v-.22h2.14v.22c-.39,0-.57.21-.61.59a9.67,9.67,0,0,0,0,1.12v1.29c0,1.08,0,1.22.11,1.33s.25.12.58.12a1.71,1.71,0,0,0,.85-.15,1.06,1.06,0,0,0,.46-.69l.29.07a4.77,4.77,0,0,1-.32,1.15"/><path class="cls-7" d="M54.41,74.81h-1.7l-.18,0V74.6c.36,0,.51-.22.53-.57a9.82,9.82,0,0,0,0-1.15v-1.3c0-.19,0-.41,0-.62a2.34,2.34,0,0,0-.08-.77.48.48,0,0,0-.48-.32v-.21H54.6v.21c-.33,0-.5.23-.53.59a8.14,8.14,0,0,0,0,1.12v1.3a4.09,4.09,0,0,0,.09,1.4c.06.2.21.29.47.32v.22Z"/><path class="cls-7" d="M61.67,76.22a3.86,3.86,0,0,1-1.87-.54,7.74,7.74,0,0,1-1.19-.81,3.19,3.19,0,0,1-.61,0,2.44,2.44,0,0,1-2.6-2.57,2.65,2.65,0,0,1,2.77-2.79,2.47,2.47,0,0,1,2.66,2.56,2.76,2.76,0,0,1-1.45,2.51,8.94,8.94,0,0,1,.84.46,3.63,3.63,0,0,0,1.84.68,1.86,1.86,0,0,0,.89-.23l.1.27a2.32,2.32,0,0,1-1.37.41M58,70.08A1.71,1.71,0,0,0,56.38,72c0,1.35.8,2.41,1.82,2.41a1.73,1.73,0,0,0,1.63-1.93c0-1.33-.8-2.37-1.83-2.37"/><path class="cls-7" d="M66.19,70a1,1,0,0,0-.14.58c0,.34,0,.59,0,1.07,0,.17,0,.71,0,1.25a1.91,1.91,0,0,1-.31,1.2,2,2,0,0,1-1.72.78,2,2,0,0,1-1.21-.32A1.69,1.69,0,0,1,62,73c0-.83,0-1.19,0-1.47a7.5,7.5,0,0,0,0-1.2c-.05-.27-.19-.4-.52-.42v-.21h2.08v.21a.5.5,0,0,0-.44.22,1.16,1.16,0,0,0-.1.62c0,.48,0,1,0,1.46,0,1.33,0,1.59.28,1.87a1.16,1.16,0,0,0,.87.36,1.18,1.18,0,0,0,1.19-.78,4.89,4.89,0,0,0,.11-1.45v-.76c0-.88,0-1.17-.11-1.29a.49.49,0,0,0-.41-.24v-.21h1.62v.21a.51.51,0,0,0-.36.17"/><path class="cls-7" d="M70.92,74.71c-.07.12-.15.14-.58.14l-.78,0-1.11,0c-.37,0-.74,0-1.11,0V74.6a.55.55,0,0,0,.54-.57c0-.23,0-.49,0-.88V71a2,2,0,0,0-.09-.77.47.47,0,0,0-.47-.32v-.21H71v.68c0,.2,0,.37,0,.55h-.28c0-.6-.31-.76-1.24-.76h-.57c0,.32,0,.41,0,.87v.9h.35c.81,0,1-.11,1.1-.54h.28a7.11,7.11,0,0,0,0,.77c0,.39,0,.64,0,.75H70.3c0-.43-.23-.54-1-.54h-.42c0,.47,0,1,0,1.47,0,.33,0,.43.24.48a2.23,2.23,0,0,0,.53,0c.84,0,1.13-.19,1.31-.83l.31.06a6,6,0,0,1-.32,1.15"/><path class="cls-7" d="M78.1,70.06c0-.67-.4-.93-1.47-.93a5.76,5.76,0,0,0-.66,0c0,.64,0,1.08,0,2.12h.5c.88,0,1.14-.14,1.19-.63H78c0,.24,0,.52,0,.77s0,.72,0,1.07h-.34c-.06-.58-.28-.68-1.27-.68H76v1.05c0,.2,0,.44,0,.68,0,.52.06,1,.67,1v.26H74.12v-.26a.66.66,0,0,0,.65-.69,11.68,11.68,0,0,0,0-1.39V70.13a2.48,2.48,0,0,0-.11-.92c-.08-.24-.25-.35-.58-.4v-.25h4.33a7.3,7.3,0,0,0,0,.88,3.77,3.77,0,0,0,0,.63Z"/><path class="cls-7" d="M83.29,74.89a1,1,0,0,1-.61-.16,3,3,0,0,1-.68-.89,15.71,15.71,0,0,0-.84-1.37h-.33v1a2.43,2.43,0,0,0,.08.77.49.49,0,0,0,.48.33v.22h-2V74.6a.45.45,0,0,0,.37-.15.79.79,0,0,0,.17-.42,10.39,10.39,0,0,0,0-1.15v-1.3a4.88,4.88,0,0,0-.09-1.39c-.05-.21-.22-.3-.47-.33v-.22a4.14,4.14,0,0,0,.45,0c.4,0,.53,0,1,0l.84,0a1.8,1.8,0,0,1,1.11.27,1.26,1.26,0,0,1,.48,1,1.54,1.54,0,0,1-1.12,1.42c.29.38.52.74.8,1.17a5.56,5.56,0,0,0,.69.93.5.5,0,0,0,.32.2v.22a2.85,2.85,0,0,1-.64.07M81.3,70a2,2,0,0,0-.48.06V72a2.18,2.18,0,0,0,.33,0,1,1,0,0,0,1.07-1,1,1,0,0,0-.93-1"/><path class="cls-7" d="M88.88,74.81H87V74.6c.25,0,.39-.15.39-.36a1.23,1.23,0,0,0-.11-.42c-.08-.3-.15-.49-.24-.75H85.6l-.15.44a2.88,2.88,0,0,0-.18.75c0,.22.1.33.35.34v.22l-.78,0-.77,0V74.6a.33.33,0,0,0,.24-.1,2.78,2.78,0,0,0,.54-1l.74-1.87c.2-.51.51-1.33.71-2h.53c.06.24.23.61.34.91l1.1,2.8a7.28,7.28,0,0,0,.42.93.58.58,0,0,0,.4.32v.22ZM86.38,71c-.2.52-.49,1.22-.6,1.59h1.15Z"/><path class="cls-7" d="M94.41,70.1a1.29,1.29,0,0,0-.11.68c0,.7,0,1.79,0,2.3v1.19c0,.17,0,.45,0,.56h-.53c-.51-.65-1.55-1.95-1.55-1.95l-1.59-1.95c0,.16,0,.07,0,.57V72c0,.58,0,1.15,0,1.73a1.62,1.62,0,0,0,.11.64.43.43,0,0,0,.42.22v.22c-.27,0-.54,0-.81,0s-.56,0-.84,0V74.6c.52,0,.53-.43.54-.85s0-.6,0-1.09V71c0-.65,0-.8-.15-1s-.18-.17-.41-.19v-.22c.26,0,.35,0,.68,0s.41,0,.67,0a9,9,0,0,0,.78,1c.76.92,1.44,1.71,2.08,2.52v-1.7a8,8,0,0,0,0-1.17.49.49,0,0,0-.49-.4v-.22c.32,0,.43,0,.82,0s.51,0,.81,0v.22a.43.43,0,0,0-.43.23"/><path class="cls-7" d="M99.82,74.64a4,4,0,0,1-1.56.28l-.08.3h.14a.47.47,0,0,1,.5.46c0,.43-.34.72-.86.72a1.37,1.37,0,0,1-.47-.09l.11-.3a1.07,1.07,0,0,0,.28.06c.22,0,.37-.11.37-.32s-.07-.25-.19-.25a.38.38,0,0,0-.18.06l-.17-.05.15-.62a2.41,2.41,0,0,1-1.6-.72,2.74,2.74,0,0,1-.73-1.94,2.55,2.55,0,0,1,2.85-2.68,4.58,4.58,0,0,1,1.5.22,5.18,5.18,0,0,0,0,.52c0,.14,0,.42,0,.59h-.3A1.15,1.15,0,0,0,98.32,70,1.71,1.71,0,0,0,96.56,72c0,1.4.79,2.42,1.86,2.42a1.23,1.23,0,0,0,1.28-.94l.29.05a7.72,7.72,0,0,0-.17,1.13"/><path class="cls-7" d="M105.2,74.81h-1.84V74.6c.25,0,.39-.15.39-.36a1.33,1.33,0,0,0-.1-.42c-.09-.3-.16-.49-.25-.75h-1.48l-.15.44a3,3,0,0,0-.18.75c0,.22.1.33.35.34v.22l-.77,0-.77,0V74.6a.32.32,0,0,0,.23-.1,2.75,2.75,0,0,0,.54-1l.72-1.87c.21-.51.51-1.33.72-2h.53c.06.24.24.61.34.91l1.09,2.8a8.5,8.5,0,0,0,.42.93.59.59,0,0,0,.4.32v.22ZM102.69,71c-.2.52-.49,1.22-.6,1.59h1.15Z"/><path class="cls-7" d="M107.73,74.81H106l-.18,0V74.6c.36,0,.5-.22.53-.57a7.94,7.94,0,0,0,0-1.15v-1.3c0-.19,0-.41,0-.62a2.29,2.29,0,0,0-.08-.77.49.49,0,0,0-.48-.32v-.21h2.07v.21c-.33,0-.5.23-.53.59a8.38,8.38,0,0,0,0,1.12v1.3a4,4,0,0,0,.09,1.4c.06.2.2.29.47.32v.22Z"/><path class="cls-7" d="M110.15,74.91a3.23,3.23,0,0,1-1.31-.27c0-.29-.08-.75-.14-1.12l.29,0a1.18,1.18,0,0,0,1.2,1c.56,0,.92-.28.92-.72s-.24-.59-.59-.81l-.81-.52a1.52,1.52,0,0,1-.88-1.41c0-.87.66-1.42,1.68-1.42a2.72,2.72,0,0,1,1.27.28v1.06h-.29a1,1,0,0,0-1-.87.76.76,0,0,0-.84.74c0,.36.27.61.68.88l.66.43c.63.4,1,.8,1,1.41,0,.85-.74,1.43-1.83,1.43"/><path class="cls-7" d="M116.39,74.71c-.06.12-.15.14-.58.14l-.78,0-1.11,0c-.37,0-.74,0-1.1,0V74.6c.33,0,.49-.22.53-.57s0-.49,0-.88V71a2.22,2.22,0,0,0-.08-.77.48.48,0,0,0-.47-.32v-.21h3.62c0,.23,0,.46,0,.68a3.85,3.85,0,0,0,0,.55h-.28c-.06-.6-.32-.76-1.24-.76h-.58c0,.32,0,.41,0,.87v.9h.35c.81,0,1-.11,1.1-.54H116c0,.12,0,.38,0,.77s0,.64,0,.75h-.28c0-.43-.24-.54-1-.54h-.42c0,.47,0,1,0,1.47,0,.33.06.43.25.48a2.22,2.22,0,0,0,.53,0c.84,0,1.13-.19,1.31-.83l.3.06a5.12,5.12,0,0,1-.32,1.15"/><path class="cls-7" d="M24.82,61.55c-.07.08-.18.13-.45.13s-.73,0-1.1,0H21.49l0-.16a.63.63,0,0,0,.47-.23,2.05,2.05,0,0,0,.3-.78c.1-.42.15-.66.31-1.44l.12-.61a6.47,6.47,0,0,0,.17-1.14c0-.33-.12-.48-.44-.51l0-.16h1.91l0,.16a.58.58,0,0,0-.48.23c-.19.25-.29.57-.57,2l-.1.51c-.12.61-.16.82-.2,1.1a1.78,1.78,0,0,0,0,.23c0,.3.15.39.64.39.85,0,1.17-.18,1.45-.8l.2.08a5.9,5.9,0,0,1-.44,1"/><path class="cls-7" d="M27.06,57.86a.36.36,0,0,1-.39-.36.45.45,0,0,1,.47-.46.33.33,0,0,1,.36.36.44.44,0,0,1-.44.46m-.83,3.86c-.15,0-.25-.08-.25-.22a1.84,1.84,0,0,1,.06-.35c.1-.41.23-1,.31-1.23a3.76,3.76,0,0,0,.14-.78c0-.1,0-.13-.13-.13a1,1,0,0,0-.29.07H26l0-.21a3.68,3.68,0,0,1,1-.26c.12,0,.17,0,.17.13a5.14,5.14,0,0,1-.18.87l-.11.43a5.76,5.76,0,0,0-.24,1.12.15.15,0,0,0,.17.16,1.38,1.38,0,0,0,.42-.1v.21a3.48,3.48,0,0,1-1,.27"/><path class="cls-7" d="M30.39,61.37a1.6,1.6,0,0,1-1.18.36c-.6,0-.94-.1-.94-.25a1.75,1.75,0,0,1,.08-.45l.39-1.72c.13-.55.23-1,.37-1.6a3.83,3.83,0,0,0,.1-.66.12.12,0,0,0-.13-.14,1.92,1.92,0,0,0-.33.08l0-.22.1,0a4.58,4.58,0,0,1,.91-.2c.09,0,.16,0,.16.12a6,6,0,0,1-.17.84l-.23,1-.12.55a2.59,2.59,0,0,1,1.27-.41c.46,0,.69.23.69.71a2.94,2.94,0,0,1-1,2m0-2.42a1.1,1.1,0,0,0-.51.16,1.29,1.29,0,0,0-.47.35,2.74,2.74,0,0,0-.29.86,6.47,6.47,0,0,0-.18.89c0,.13.18.21.48.21a.92.92,0,0,0,.77-.41,3.25,3.25,0,0,0,.53-1.62c0-.28-.12-.44-.33-.44"/><path class="cls-7" d="M33,60.43h-.22a2.72,2.72,0,0,0,0,.36c0,.4.13.59.4.59a2,2,0,0,0,1-.41l.09.26a2.64,2.64,0,0,1-1.37.52.69.69,0,0,1-.72-.79,2.18,2.18,0,0,1,1.82-2.33c.48,0,.76.22.76.59,0,.71-.75,1.22-1.71,1.22m.78-1.5c-.37,0-.75.49-.94,1.23h.08c.7,0,1.23-.37,1.23-.85a.37.37,0,0,0-.37-.38"/><path class="cls-7" d="M37.73,59.6l-.25,0c0-.09,0-.21,0-.3s-.12-.24-.31-.24a.46.46,0,0,0-.32.18,3.62,3.62,0,0,0-.57,1.68l-.14.74c-.3,0-.36,0-.66,0,.08-.27.13-.5.19-.76l.17-.69a5.26,5.26,0,0,0,.16-.94c0-.18,0-.26-.13-.26l-.19,0-.19.05v-.21a3.22,3.22,0,0,1,1-.27.12.12,0,0,1,.14.11,3.13,3.13,0,0,1,0,.32,1.61,1.61,0,0,1,.85-.43.89.89,0,0,1,.5.19,3.6,3.6,0,0,0-.27.79"/><path class="cls-7" d="M40.28,59.08h-.63l-.31,1.55a2.83,2.83,0,0,0-.1.57c0,.11,0,.16.15.16a1.54,1.54,0,0,0,.34-.07l.08,0,0,.22a3,3,0,0,1-1,.27c-.15,0-.25-.07-.25-.22a2.09,2.09,0,0,1,.09-.55c.06-.27.11-.49.18-.78l.24-1.12h-.41l.05-.24c.52-.1.7-.49.84-.94l.36-.08-.19.89h.63Z"/><path class="cls-7" d="M42.6,58.16l-.24-.2.92-1,.68.17Zm-.85,2.27h-.21a1.7,1.7,0,0,0,0,.36c0,.4.14.59.41.59a2.12,2.12,0,0,0,1-.41l.08.26a2.62,2.62,0,0,1-1.37.52A.69.69,0,0,1,40.9,61a2.18,2.18,0,0,1,1.82-2.33c.49,0,.76.22.76.59,0,.71-.74,1.22-1.71,1.22m.79-1.5c-.37,0-.75.49-.94,1.23h.07c.7,0,1.23-.37,1.23-.85a.37.37,0,0,0-.36-.38"/><path class="cls-7" d="M55.58,56.1l-.24-.2.92-1L57,55ZM57,57.71h-.21a1,1,0,0,0,0-.17c0-.42-.27-.56-1-.56-.25,0-.48,0-.74,0-.15.63-.26,1.17-.39,1.85h.28a4.31,4.31,0,0,0,.86,0,.63.63,0,0,0,.53-.52h.21c-.1.44-.24,1.08-.3,1.47H56a.49.49,0,0,0,0-.13c0-.33-.2-.44-.82-.44h-.65c0,.2,0,0-.17.9a4.42,4.42,0,0,0-.12.82c0,.27.14.34.64.34,1,0,1.25-.15,1.54-.8l.19.07a4.37,4.37,0,0,1-.46,1c-.07.08-.17.11-.49.11l-.8,0-1.05,0H52.81l0-.16a.62.62,0,0,0,.46-.23,2,2,0,0,0,.31-.78c.09-.42.13-.59.3-1.44l.12-.61a6.34,6.34,0,0,0,.16-1.14c0-.33-.12-.48-.44-.51l0-.16h3.43c-.09.34-.16.75-.22,1.1"/><path class="cls-7" d="M60.74,59.07h-.51a.85.85,0,0,1,.12.46A1.26,1.26,0,0,1,59,60.75a1.24,1.24,0,0,1-.41-.06c-.19.12-.25.16-.25.23s.08.13.42.23l.6.18c.61.19.91.37.91.81a1.64,1.64,0,0,1-1.81,1.43c-.83,0-1.35-.4-1.35-1s.39-.87,1-1c-.38-.14-.46-.2-.46-.32s.22-.37.67-.62a.79.79,0,0,1-.35-.68,1.27,1.27,0,0,1,1.33-1.26,1.4,1.4,0,0,1,.51.08h1Zm-1.44-.16a.87.87,0,0,0-.74.95.52.52,0,0,0,.51.58.84.84,0,0,0,.72-.92c0-.38-.19-.61-.49-.61M59.41,62c-.25-.1-.56-.2-.88-.3a1.06,1.06,0,0,0-.89,1c0,.41.35.68.89.68s1.26-.44,1.26-.93c0-.18-.11-.3-.39-.4"/><path class="cls-7" d="M63.58,61.74c-.13,0-.18-.09-.25-.46a2.77,2.77,0,0,1-1.36.47.63.63,0,0,1-.72-.65,2.89,2.89,0,0,1,.5-1.43,1.91,1.91,0,0,1,1.69-1,3.93,3.93,0,0,1,1,.14l0,.13A10.36,10.36,0,0,0,63.9,61c0,.21,0,.31.13.31a1.6,1.6,0,0,0,.41-.11l0,.23a4.18,4.18,0,0,1-.88.27m-.35-2.8c-.29,0-.6.22-.85.65a3.12,3.12,0,0,0-.49,1.47c0,.23.11.35.31.35a1.78,1.78,0,0,0,1-.43,1.34,1.34,0,0,0,.24-.55,13.32,13.32,0,0,0,.3-1.39,1.3,1.3,0,0,0-.46-.1"/><path class="cls-7" d="M66.93,57.29c-.25,1-.5,2.12-.74,3.19a4.27,4.27,0,0,0-.11.7c0,.1.06.15.17.15a1.85,1.85,0,0,0,.42-.09l0,.21a3.85,3.85,0,0,1-1.06.29.21.21,0,0,1-.23-.23,3.83,3.83,0,0,1,.13-.72c.24-1,.49-2.06.69-3,.09-.45.14-.66.14-.74a.12.12,0,0,0-.13-.13,1.27,1.27,0,0,0-.33.08l0-.23a3.77,3.77,0,0,1,1-.24c.1,0,.16,0,.16.12a3.49,3.49,0,0,1-.13.64"/><path class="cls-7" d="M68.8,57.86a.35.35,0,0,1-.38-.36.44.44,0,0,1,.46-.46.34.34,0,0,1,.37.36.44.44,0,0,1-.46.46M68,61.72c-.16,0-.25-.08-.25-.22a1.77,1.77,0,0,1,.06-.35c.1-.41.23-1,.31-1.23a4,4,0,0,0,.15-.78c0-.1,0-.13-.12-.13a1.06,1.06,0,0,0-.3.07h-.05l0-.21a3.56,3.56,0,0,1,1-.26c.11,0,.16,0,.16.13a4.43,4.43,0,0,1-.17.87l-.11.43a5.37,5.37,0,0,0-.24,1.12.15.15,0,0,0,.17.16,1.43,1.43,0,0,0,.42-.1v.21a3.63,3.63,0,0,1-1,.27"/><path class="cls-7" d="M71.77,59.08h-.63l-.32,1.55a2.55,2.55,0,0,0-.09.57c0,.11,0,.16.14.16a1.68,1.68,0,0,0,.36-.07l.07,0,0,.22a2.92,2.92,0,0,1-1,.27c-.15,0-.25-.07-.25-.22a2,2,0,0,1,.09-.55c.06-.27.11-.49.17-.78l.24-1.12h-.39l0-.24c.51-.1.69-.49.84-.94l.35-.08-.19.89h.63Z"/><path class="cls-7" d="M74.09,58.16l-.24-.2.92-1,.68.17Zm-.84,2.27H73a2.14,2.14,0,0,0,0,.36c0,.4.13.59.4.59a2,2,0,0,0,1-.41l.09.26a2.68,2.68,0,0,1-1.36.52.69.69,0,0,1-.73-.79,2.17,2.17,0,0,1,1.81-2.33c.48,0,.77.22.77.59,0,.71-.75,1.22-1.71,1.22m.78-1.5c-.38,0-.75.49-.94,1.23h.08c.69,0,1.22-.37,1.22-.85a.37.37,0,0,0-.36-.38"/><path class="cls-7" d="M88.4,57.7h-.23c0-.07,0-.14,0-.17a.54.54,0,0,0-.14-.36c-.15-.13-.42-.19-1-.19l-.55,0c-.13.62-.25,1.21-.39,1.86h.43c.84,0,1-.07,1.16-.56h.2a13.71,13.71,0,0,0-.28,1.47h-.22a.68.68,0,0,0,0-.12.38.38,0,0,0-.14-.33c-.13-.11-.28-.12-.73-.12H86l-.09.53A8.29,8.29,0,0,0,85.75,61c0,.31.13.45.44.49l0,.16h-1.9l0-.16a.59.59,0,0,0,.47-.24,1.81,1.81,0,0,0,.3-.78c.11-.43.15-.66.31-1.44l.12-.61a7.49,7.49,0,0,0,.17-1.14c0-.33-.12-.48-.44-.51l0-.16h3.36c-.08.34-.15.72-.21,1.09"/><path class="cls-7" d="M91,59.6l-.25,0a1.68,1.68,0,0,0,0-.3c0-.13-.12-.24-.31-.24a.46.46,0,0,0-.32.18,3.73,3.73,0,0,0-.56,1.68l-.15.74c-.28,0-.36,0-.65,0,.08-.27.13-.5.19-.76l.17-.69a5.09,5.09,0,0,0,.16-.94c0-.18,0-.26-.13-.26l-.19,0-.19.05,0-.21a3.33,3.33,0,0,1,1-.27.12.12,0,0,1,.13.11,1.39,1.39,0,0,1,.05.32,1.59,1.59,0,0,1,.85-.43.9.9,0,0,1,.5.19,5.12,5.12,0,0,0-.27.79"/><path class="cls-7" d="M93.95,61.74c-.14,0-.18-.09-.25-.46a2.79,2.79,0,0,1-1.36.47c-.46,0-.72-.24-.72-.65a2.88,2.88,0,0,1,.5-1.43,1.92,1.92,0,0,1,1.68-1,3.83,3.83,0,0,1,1,.14l0,.13A10.23,10.23,0,0,0,94.27,61c0,.21,0,.31.14.31a1.78,1.78,0,0,0,.4-.11l0,.23a4.08,4.08,0,0,1-.88.27m-.35-2.8c-.31,0-.6.22-.87.65a3.23,3.23,0,0,0-.48,1.47c0,.23.11.35.3.35a1.79,1.79,0,0,0,1-.43,1.29,1.29,0,0,0,.24-.55,9.74,9.74,0,0,0,.3-1.39,1.21,1.21,0,0,0-.45-.1"/><path class="cls-7" d="M97.55,59.08h-.62l-.32,1.55a2.66,2.66,0,0,0-.09.57c0,.11.06.16.15.16a1.67,1.67,0,0,0,.35-.07l.08,0,0,.22a3,3,0,0,1-1,.27c-.16,0-.26-.07-.26-.22a2.39,2.39,0,0,1,.09-.55c.06-.27.12-.49.18-.78l.24-1.12h-.4l0-.24c.52-.1.7-.49.83-.94l.37-.08-.19.89h.63Z"/><path class="cls-7" d="M99,60.43h-.21a1.89,1.89,0,0,0,0,.36c0,.4.14.59.41.59a2.12,2.12,0,0,0,1-.41l.07.26a2.62,2.62,0,0,1-1.36.52.69.69,0,0,1-.73-.79A2.17,2.17,0,0,1,100,58.62c.48,0,.75.22.75.59,0,.71-.74,1.22-1.71,1.22m.78-1.5c-.36,0-.74.49-.94,1.23h.08c.7,0,1.23-.37,1.23-.85a.37.37,0,0,0-.37-.38"/><path class="cls-7" d="M103.76,59.6l-.25,0a2.75,2.75,0,0,0,0-.3c0-.13-.11-.24-.3-.24a.45.45,0,0,0-.33.18,3.51,3.51,0,0,0-.56,1.68l-.15.74c-.29,0-.36,0-.66,0,.08-.27.13-.5.19-.76l.18-.69a5.7,5.7,0,0,0,.16-.94c0-.18,0-.26-.14-.26l-.19,0-.19.05,0-.21a3.39,3.39,0,0,1,1-.27.12.12,0,0,1,.14.11,1.44,1.44,0,0,1,0,.32,1.62,1.62,0,0,1,.84-.43.87.87,0,0,1,.5.19,5.81,5.81,0,0,0-.27.79"/><path class="cls-7" d="M106.77,61.73a.22.22,0,0,1-.24-.23,3.85,3.85,0,0,1,.12-.64l.07-.32a10.47,10.47,0,0,0,.29-1.38.15.15,0,0,0-.16-.17,1.25,1.25,0,0,0-.57.21,1.5,1.5,0,0,0-.51.44,2.52,2.52,0,0,0-.21.69c-.12.56-.19.94-.25,1.29l-.67.05c.16-.56.26-1,.38-1.55a4.84,4.84,0,0,0,.16-.88c0-.18,0-.26-.16-.26a1.75,1.75,0,0,0-.37.08l0-.2a3.27,3.27,0,0,1,.94-.25c.16,0,.22.1.22.46v.05a3.53,3.53,0,0,1,1.58-.51c.25,0,.34.06.34.21a4.53,4.53,0,0,1-.2,1c-.08.34-.17.71-.2.88a3.74,3.74,0,0,0-.06.45c0,.11.05.16.16.16a1.16,1.16,0,0,0,.39-.1l0,.22a4.28,4.28,0,0,1-1,.27"/><path class="cls-7" d="M110,57.86a.35.35,0,0,1-.39-.36A.45.45,0,0,1,110,57a.34.34,0,0,1,.37.36.43.43,0,0,1-.45.46m-.83,3.86a.22.22,0,0,1-.25-.22,1.89,1.89,0,0,1,.06-.35c.1-.41.23-1,.31-1.23a4.45,4.45,0,0,0,.15-.78c0-.1-.05-.13-.12-.13a.94.94,0,0,0-.29.07h-.07l0-.21a3.62,3.62,0,0,1,1-.26c.11,0,.16,0,.16.13a4.9,4.9,0,0,1-.18.87l-.11.43a6.3,6.3,0,0,0-.24,1.12c0,.1.06.16.18.16a1.38,1.38,0,0,0,.42-.1l0,.21a3.66,3.66,0,0,1-1.05.27"/><path class="cls-7" d="M112.94,59.08h-.63L112,60.62a2.74,2.74,0,0,0-.1.57c0,.11,0,.16.15.16a1.72,1.72,0,0,0,.35-.07l.07,0,0,.22a3,3,0,0,1-1,.27c-.15,0-.26-.07-.26-.22a2,2,0,0,1,.11-.55l.17-.78.23-1.12h-.4l.06-.24c.51-.1.69-.49.83-.94l.36-.08-.19.89H113Z"/><path class="cls-7" d="M115.25,58.16,115,58l.93-1,.67.17Zm-.85,2.27h-.21a3.26,3.26,0,0,0,0,.36c0,.4.13.59.4.59a2.11,2.11,0,0,0,1-.41l.08.26a2.64,2.64,0,0,1-1.35.52.69.69,0,0,1-.73-.79,2.17,2.17,0,0,1,1.81-2.33c.47,0,.76.22.76.59,0,.71-.75,1.22-1.72,1.22m.78-1.5c-.35,0-.74.49-.93,1.23h.08c.7,0,1.23-.37,1.23-.85a.37.37,0,0,0-.38-.38"/><path class="cls-7" d="M79.84,60.32a.91.91,0,1,0,0-1.82.91.91,0,1,0,0,1.82"/><path class="cls-7" d="M48.38,60.32a.91.91,0,1,0-.92-.91.91.91,0,0,0,.92.91"/><rect class="cls-7" x="21.99" y="64.66" width="94.34" height="0.8"/><rect class="cls-8" x="137.38" y="0.63" width="219.33" height="93.58"/><path class="cls-9" d="M221.74,28.06l-3.07-6.69v5.31a1.63,1.63,0,0,0,.16.91.87.87,0,0,0,.69.25h.28v.22H217v-.22h.28a.81.81,0,0,0,.71-.3,1.78,1.78,0,0,0,.13-.86V21.5a1.82,1.82,0,0,0-.12-.76.65.65,0,0,0-.3-.28,1.61,1.61,0,0,0-.71-.11v-.22h2.25l2.88,6.22L225,20.12h2.25v.22H227a.81.81,0,0,0-.72.3,1.78,1.78,0,0,0-.13.86v5.19a1.58,1.58,0,0,0,.16.91.87.87,0,0,0,.69.25h.28v.22h-3.37v-.22h.28a.8.8,0,0,0,.71-.3,1.78,1.78,0,0,0,.13-.86V21.38l-3.06,6.69Z"/><path class="cls-9" d="M231.21,27.85v.22h-3.4v-.22h.28a.85.85,0,0,0,.71-.29,1.79,1.79,0,0,0,.14-.9V21.52a2.63,2.63,0,0,0-.08-.8.53.53,0,0,0-.24-.25,1.11,1.11,0,0,0-.54-.14h-.28v-.22h3.4v.22h-.29a.84.84,0,0,0-.71.29,1.72,1.72,0,0,0-.15.9v5.13a2.63,2.63,0,0,0,.08.8.52.52,0,0,0,.25.25,1.08,1.08,0,0,0,.53.14Z"/><path class="cls-9" d="M231.34,20.12h2.16l4.86,6V21.5a1.58,1.58,0,0,0-.16-.91.87.87,0,0,0-.69-.25h-.28v-.22H240v.22h-.28a.81.81,0,0,0-.71.3,1.78,1.78,0,0,0-.13.86v6.7h-.21l-5.24-6.4v4.89a1.63,1.63,0,0,0,.16.91.88.88,0,0,0,.69.25h.28v.22h-2.77v-.22h.28a.81.81,0,0,0,.72-.3,1.78,1.78,0,0,0,.13-.86V21.16a3.62,3.62,0,0,0-.53-.53,1.92,1.92,0,0,0-.52-.24,1.87,1.87,0,0,0-.52-.05Z"/><path class="cls-9" d="M243.87,27.85v.22h-3.4v-.22h.28a.85.85,0,0,0,.71-.29,1.79,1.79,0,0,0,.14-.9V21.52a2.63,2.63,0,0,0-.08-.8.53.53,0,0,0-.24-.25,1.11,1.11,0,0,0-.54-.14h-.28v-.22h3.4v.22h-.29a.84.84,0,0,0-.71.29,1.72,1.72,0,0,0-.15.9v5.13a2.63,2.63,0,0,0,.08.8.52.52,0,0,0,.25.25,1.08,1.08,0,0,0,.53.14Z"/><path class="cls-9" d="M249.66,19.94v2.75h-.22a3.42,3.42,0,0,0-.38-1.26,2,2,0,0,0-.78-.74,2.15,2.15,0,0,0-1-.28,1.42,1.42,0,0,0-1,.37,1.13,1.13,0,0,0-.4.85,1,1,0,0,0,.25.66,6.48,6.48,0,0,0,1.73,1.17,11.91,11.91,0,0,1,1.52.92,2.24,2.24,0,0,1,.63.75,2,2,0,0,1,.22.91,2.06,2.06,0,0,1-.7,1.56,2.53,2.53,0,0,1-1.8.65,3.82,3.82,0,0,1-.65-.05,6.67,6.67,0,0,1-.75-.21,3.38,3.38,0,0,0-.72-.18.31.31,0,0,0-.23.09.7.7,0,0,0-.12.36H245V25.52h.22a3.85,3.85,0,0,0,.41,1.28,2,2,0,0,0,.79.71,2.45,2.45,0,0,0,1.16.28,1.65,1.65,0,0,0,1.16-.39,1.2,1.2,0,0,0,.43-.91,1.24,1.24,0,0,0-.16-.59,1.76,1.76,0,0,0-.5-.56,14.36,14.36,0,0,0-1.25-.75,12.13,12.13,0,0,1-1.45-.91,2.45,2.45,0,0,1-.65-.75,1.86,1.86,0,0,1-.22-.9,2,2,0,0,1,.66-1.47,2.34,2.34,0,0,1,1.67-.62,3.35,3.35,0,0,1,1.34.31,1.38,1.38,0,0,0,.46.15.35.35,0,0,0,.25-.09.72.72,0,0,0,.16-.37Z"/><path class="cls-9" d="M257.78,20.12l.09,1.86h-.22a2.25,2.25,0,0,0-.18-.7,1.18,1.18,0,0,0-.48-.5,1.68,1.68,0,0,0-.79-.16h-1.12v6.07a1.63,1.63,0,0,0,.16.91.88.88,0,0,0,.69.25h.28v.22h-3.37v-.22h.28a.81.81,0,0,0,.71-.3,1.78,1.78,0,0,0,.13-.86V20.62h-1a2.66,2.66,0,0,0-.79.08,1.09,1.09,0,0,0-.52.43,1.73,1.73,0,0,0-.26.86h-.22l.09-1.86Z"/><path class="cls-9" d="M260.67,20.55v3.14h1.75a1.42,1.42,0,0,0,.91-.21,1.32,1.32,0,0,0,.34-.95h.22V25.3h-.22a3,3,0,0,0-.16-.74.73.73,0,0,0-.35-.32,1.76,1.76,0,0,0-.74-.12h-1.75v2.62a2.44,2.44,0,0,0,0,.64.37.37,0,0,0,.16.18,1,1,0,0,0,.45.07h1.35a3.65,3.65,0,0,0,1-.09,1.46,1.46,0,0,0,.59-.37,4.51,4.51,0,0,0,.74-1.1h.23l-.69,2h-6.12v-.22h.28a1.12,1.12,0,0,0,.53-.13.49.49,0,0,0,.25-.28,2.75,2.75,0,0,0,.07-.77V21.5a1.71,1.71,0,0,0-.15-.93.91.91,0,0,0-.7-.23h-.28v-.22h6.12l.09,1.74h-.23a2.74,2.74,0,0,0-.27-.86.93.93,0,0,0-.44-.36,2.65,2.65,0,0,0-.83-.09Zm-.13-3h1.31l.62,2h-.21Z"/><path class="cls-9" d="M273.6,28.06h-2.12l-2.69-3.71H268v2.31a1.62,1.62,0,0,0,.16.93.83.83,0,0,0,.67.26h.31v.22h-3.4v-.22h.3a.8.8,0,0,0,.72-.33,1.85,1.85,0,0,0,.12-.86V21.52a1.62,1.62,0,0,0-.16-.93.86.86,0,0,0-.68-.26h-.3v-.22h2.89a6.88,6.88,0,0,1,1.87.18,2.14,2.14,0,0,1,1,.68,1.77,1.77,0,0,1,.42,1.18,1.86,1.86,0,0,1-.48,1.27,2.69,2.69,0,0,1-1.48.76l1.64,2.28a4.08,4.08,0,0,0,1,1,2.44,2.44,0,0,0,1.05.33ZM268,24h.33a2.58,2.58,0,0,0,1.71-.49,1.58,1.58,0,0,0,.58-1.25,1.64,1.64,0,0,0-.47-1.21,1.66,1.66,0,0,0-1.23-.47,5.17,5.17,0,0,0-.92.11Z"/><path class="cls-9" d="M276,20.55v3.14h1.75a1.42,1.42,0,0,0,.91-.21,1.32,1.32,0,0,0,.34-.95h.22V25.3H279a3,3,0,0,0-.16-.74.73.73,0,0,0-.35-.32,1.76,1.76,0,0,0-.74-.12H276v2.62a2.44,2.44,0,0,0,0,.64.37.37,0,0,0,.16.18,1,1,0,0,0,.45.07H278a3.65,3.65,0,0,0,1-.09,1.46,1.46,0,0,0,.59-.37,4.51,4.51,0,0,0,.74-1.1h.23l-.69,2h-6.12v-.22H274a1.12,1.12,0,0,0,.53-.13.49.49,0,0,0,.25-.28,2.75,2.75,0,0,0,.07-.77V21.5a1.71,1.71,0,0,0-.15-.93.91.91,0,0,0-.7-.23h-.28v-.22h6.12l.09,1.74h-.23a2.74,2.74,0,0,0-.27-.86.93.93,0,0,0-.44-.36,2.65,2.65,0,0,0-.83-.09Z"/><path class="cls-9" d="M151,43.56v-.22h.3A.79.79,0,0,0,152,43a1.84,1.84,0,0,0,.13-.87V37a1.64,1.64,0,0,0-.16-.93.86.86,0,0,0-.68-.26H151v-.22h3.23A7.06,7.06,0,0,1,157,36a3.22,3.22,0,0,1,1.49,1.35,4.16,4.16,0,0,1,.57,2.18,4,4,0,0,1-1,2.77,4.43,4.43,0,0,1-3.45,1.24ZM153.3,43a6,6,0,0,0,1.25.16,3,3,0,0,0,2.26-1,3.63,3.63,0,0,0,.9-2.59,3.63,3.63,0,0,0-.9-2.6,3,3,0,0,0-2.3-.95,5,5,0,0,0-1.2.17Z"/><path class="cls-9" d="M162,36.05v3.14h1.75a1.42,1.42,0,0,0,.91-.21A1.32,1.32,0,0,0,165,38h.22V40.8H165a3,3,0,0,0-.16-.74.73.73,0,0,0-.35-.32,1.77,1.77,0,0,0-.74-.12H162v2.62a2.43,2.43,0,0,0,0,.64.37.37,0,0,0,.16.18,1,1,0,0,0,.45.07H164a3.65,3.65,0,0,0,1-.09,1.46,1.46,0,0,0,.59-.37,4.51,4.51,0,0,0,.74-1.1h.23l-.69,2h-6.12v-.22H160a1.12,1.12,0,0,0,.53-.13.49.49,0,0,0,.25-.28,2.76,2.76,0,0,0,.07-.77V37a1.71,1.71,0,0,0-.15-.93.91.91,0,0,0-.7-.23h-.28v-.22h6.12l.09,1.74h-.23a2.74,2.74,0,0,0-.27-.86.94.94,0,0,0-.44-.36,2.65,2.65,0,0,0-.83-.09Z"/><path class="cls-9" d="M176.7,41.37l.19,0-.68,2.16h-6.15v-.22h.3a.8.8,0,0,0,.72-.33,1.89,1.89,0,0,0,.12-.87V37a1.64,1.64,0,0,0-.16-.93.86.86,0,0,0-.68-.26h-.3v-.22h3.6v.22a2.2,2.2,0,0,0-.89.12.72.72,0,0,0-.35.31,2.56,2.56,0,0,0-.09.9v5a1.62,1.62,0,0,0,.09.67.42.42,0,0,0,.22.18,3.81,3.81,0,0,0,.91.06h.58a4.2,4.2,0,0,0,1.28-.13,1.67,1.67,0,0,0,.67-.48A3.91,3.91,0,0,0,176.7,41.37Z"/><path class="cls-9" d="M177.45,38.47V38.2a2.66,2.66,0,0,0,.82-.67.92.92,0,0,0,.15-.53.46.46,0,0,0-.06-.27.2.2,0,0,0-.15-.09.5.5,0,0,0-.17,0,.8.8,0,0,1-.25.05.63.63,0,0,1-.42-1.07.84.84,0,0,1,.59-.22,1,1,0,0,1,.71.33,1.15,1.15,0,0,1,.31.82,1.82,1.82,0,0,1-.52,1.26A2.56,2.56,0,0,1,177.45,38.47Z"/><path class="cls-9" d="M182.56,36.05v3.14h1.75a1.42,1.42,0,0,0,.91-.21,1.32,1.32,0,0,0,.34-.95h.22V40.8h-.22a3,3,0,0,0-.16-.74.73.73,0,0,0-.35-.32,1.77,1.77,0,0,0-.74-.12h-1.75v2.62a2.43,2.43,0,0,0,0,.64.37.37,0,0,0,.16.18,1,1,0,0,0,.45.07h1.35a3.65,3.65,0,0,0,1-.09,1.46,1.46,0,0,0,.59-.37,4.51,4.51,0,0,0,.74-1.1h.23l-.69,2H180.3v-.22h.28a1.12,1.12,0,0,0,.53-.13.49.49,0,0,0,.26-.28,2.77,2.77,0,0,0,.07-.77V37a1.71,1.71,0,0,0-.15-.93.91.91,0,0,0-.7-.23h-.28v-.22h6.12l.09,1.74h-.23a2.75,2.75,0,0,0-.27-.86.94.94,0,0,0-.44-.36,2.65,2.65,0,0,0-.83-.09Z"/><path class="cls-9" d="M187.22,35.62h2.16l4.86,6V37a1.58,1.58,0,0,0-.16-.91.87.87,0,0,0-.69-.25h-.28v-.22h2.77v.22h-.28a.81.81,0,0,0-.71.3,1.78,1.78,0,0,0-.13.86v6.7h-.21l-5.24-6.4v4.89a1.63,1.63,0,0,0,.16.91.88.88,0,0,0,.69.25h.28v.22h-2.77v-.22h.28a.81.81,0,0,0,.72-.3,1.78,1.78,0,0,0,.13-.86V36.66a3.63,3.63,0,0,0-.52-.53,1.93,1.93,0,0,0-.53-.24,1.87,1.87,0,0,0-.52-.05Z"/><path class="cls-9" d="M201.55,35.44v2.75h-.22a3.42,3.42,0,0,0-.38-1.26,2,2,0,0,0-.78-.74,2.15,2.15,0,0,0-1-.28,1.42,1.42,0,0,0-1,.37,1.13,1.13,0,0,0-.4.85,1,1,0,0,0,.25.66A6.48,6.48,0,0,0,199.71,39a12,12,0,0,1,1.52.92,2.24,2.24,0,0,1,.63.75,2,2,0,0,1,.22.91,2.06,2.06,0,0,1-.7,1.56,2.54,2.54,0,0,1-1.8.65,3.82,3.82,0,0,1-.65-.05,6.68,6.68,0,0,1-.75-.21,3.38,3.38,0,0,0-.72-.18.3.3,0,0,0-.23.09.7.7,0,0,0-.13.36h-.22V41h.22a3.85,3.85,0,0,0,.41,1.28,2,2,0,0,0,.79.71,2.44,2.44,0,0,0,1.16.28,1.66,1.66,0,0,0,1.16-.39A1.2,1.2,0,0,0,201,42a1.24,1.24,0,0,0-.16-.59,1.77,1.77,0,0,0-.5-.56,14.33,14.33,0,0,0-1.25-.75,12.07,12.07,0,0,1-1.45-.91,2.46,2.46,0,0,1-.65-.75,1.86,1.86,0,0,1-.22-.9,2,2,0,0,1,.66-1.47,2.34,2.34,0,0,1,1.67-.62,3.35,3.35,0,0,1,1.34.31,1.38,1.38,0,0,0,.46.15.35.35,0,0,0,.25-.09.73.73,0,0,0,.15-.37Z"/><path class="cls-9" d="M205.23,36.05v3.14H207a1.42,1.42,0,0,0,.91-.21,1.32,1.32,0,0,0,.34-.95h.22V40.8h-.22a3,3,0,0,0-.16-.74.73.73,0,0,0-.35-.32,1.76,1.76,0,0,0-.74-.12h-1.75v2.62a2.44,2.44,0,0,0,0,.64.37.37,0,0,0,.16.18,1,1,0,0,0,.45.07h1.35a3.65,3.65,0,0,0,1-.09,1.46,1.46,0,0,0,.59-.37,4.51,4.51,0,0,0,.74-1.1h.23l-.69,2H203v-.22h.28a1.12,1.12,0,0,0,.53-.13.5.5,0,0,0,.26-.28,2.77,2.77,0,0,0,.07-.77V37a1.71,1.71,0,0,0-.15-.93.91.91,0,0,0-.7-.23H203v-.22h6.12l.09,1.74h-.23a2.75,2.75,0,0,0-.27-.86.94.94,0,0,0-.44-.36,2.65,2.65,0,0,0-.83-.09Z"/><path class="cls-9" d="M213.75,43.35v.22h-3.4v-.22h.28a.85.85,0,0,0,.71-.29,1.78,1.78,0,0,0,.14-.9V37a2.63,2.63,0,0,0-.08-.8.53.53,0,0,0-.24-.25,1.11,1.11,0,0,0-.54-.14h-.28v-.22h3.4v.22h-.29a.84.84,0,0,0-.71.29,1.72,1.72,0,0,0-.15.9v5.13a2.63,2.63,0,0,0,.08.8.52.52,0,0,0,.25.25,1.08,1.08,0,0,0,.53.14Z"/><path class="cls-9" d="M221.41,35.44l.2,2.51h-.2a3.43,3.43,0,0,0-.8-1.41,2.51,2.51,0,0,0-1.82-.69,2.59,2.59,0,0,0-2.31,1.2,4.32,4.32,0,0,0-.66,2.41,4.83,4.83,0,0,0,.44,2.07,3.09,3.09,0,0,0,1.15,1.37,2.76,2.76,0,0,0,1.46.44,3.23,3.23,0,0,0,.85-.11,3.39,3.39,0,0,0,.79-.33v-2.3a2.13,2.13,0,0,0-.09-.78.61.61,0,0,0-.28-.28,1.63,1.63,0,0,0-.67-.1v-.22h3.08v.22h-.15a.65.65,0,0,0-.63.3,2.06,2.06,0,0,0-.12.86V43a6,6,0,0,1-1.33.53,5.82,5.82,0,0,1-1.46.17,4.24,4.24,0,0,1-3.5-1.48,3.94,3.94,0,0,1-.9-2.55,4.48,4.48,0,0,1,2.14-3.77,4,4,0,0,1,2.06-.51,4.07,4.07,0,0,1,.79.07,7.2,7.2,0,0,1,1,.31,1.62,1.62,0,0,0,.44.12.24.24,0,0,0,.19-.1.79.79,0,0,0,.1-.4Z"/><path class="cls-9" d="M222.55,35.62h2.16l4.86,6V37a1.58,1.58,0,0,0-.16-.91.87.87,0,0,0-.69-.25h-.28v-.22h2.77v.22h-.28a.81.81,0,0,0-.71.3,1.78,1.78,0,0,0-.13.86v6.7h-.21l-5.24-6.4v4.89a1.63,1.63,0,0,0,.16.91.88.88,0,0,0,.69.25h.28v.22H223v-.22h.28A.81.81,0,0,0,224,43a1.78,1.78,0,0,0,.13-.86V36.66a3.63,3.63,0,0,0-.52-.53,1.93,1.93,0,0,0-.53-.24,1.87,1.87,0,0,0-.52-.05Z"/><path class="cls-9" d="M233.89,36.05v3.14h1.75a1.42,1.42,0,0,0,.91-.21,1.32,1.32,0,0,0,.34-.95h.22V40.8h-.22a3,3,0,0,0-.16-.74.73.73,0,0,0-.35-.32,1.76,1.76,0,0,0-.74-.12h-1.75v2.62a2.44,2.44,0,0,0,0,.64.37.37,0,0,0,.16.18,1,1,0,0,0,.45.07h1.35a3.65,3.65,0,0,0,1-.09,1.46,1.46,0,0,0,.59-.37,4.51,4.51,0,0,0,.74-1.1h.23l-.69,2h-6.12v-.22h.28a1.12,1.12,0,0,0,.53-.13.5.5,0,0,0,.26-.28,2.77,2.77,0,0,0,.07-.77V37a1.71,1.71,0,0,0-.15-.93.91.91,0,0,0-.7-.23h-.28v-.22h6.12l.09,1.74h-.23a2.75,2.75,0,0,0-.27-.86.94.94,0,0,0-.44-.36,2.65,2.65,0,0,0-.83-.09Z"/><path class="cls-9" d="M243.62,43.56l-3.07-6.69v5.31a1.63,1.63,0,0,0,.16.91.87.87,0,0,0,.69.25h.28v.22h-2.77v-.22h.28a.81.81,0,0,0,.71-.3,1.78,1.78,0,0,0,.13-.86V37a1.82,1.82,0,0,0-.12-.76.65.65,0,0,0-.3-.28,1.62,1.62,0,0,0-.71-.11v-.22h2.25L244,41.84l2.84-6.22h2.25v.22h-.28a.81.81,0,0,0-.72.3A1.78,1.78,0,0,0,248,37v5.19a1.58,1.58,0,0,0,.16.91.87.87,0,0,0,.69.25h.28v.22h-3.37v-.22H246a.8.8,0,0,0,.71-.3,1.78,1.78,0,0,0,.13-.86V36.88l-3.06,6.69Z"/><path class="cls-9" d="M251.89,36.05v3.14h1.75a1.42,1.42,0,0,0,.91-.21,1.32,1.32,0,0,0,.34-.95h.22V40.8h-.22a3,3,0,0,0-.16-.74.73.73,0,0,0-.35-.32,1.76,1.76,0,0,0-.74-.12h-1.75v2.62a2.44,2.44,0,0,0,0,.64.37.37,0,0,0,.16.18,1,1,0,0,0,.45.07h1.35a3.65,3.65,0,0,0,1-.09,1.46,1.46,0,0,0,.59-.37,4.51,4.51,0,0,0,.74-1.1h.23l-.69,2h-6.12v-.22h.28a1.12,1.12,0,0,0,.53-.13.5.5,0,0,0,.26-.28,2.77,2.77,0,0,0,.07-.77V37a1.71,1.71,0,0,0-.15-.93.91.91,0,0,0-.7-.23h-.28v-.22h6.12l.09,1.74h-.23a2.75,2.75,0,0,0-.27-.86.94.94,0,0,0-.44-.36,2.65,2.65,0,0,0-.83-.09Z"/><path class="cls-9" d="M256.55,35.62h2.16l4.86,6V37a1.58,1.58,0,0,0-.16-.91.87.87,0,0,0-.69-.25h-.28v-.22h2.77v.22h-.28a.81.81,0,0,0-.71.3,1.78,1.78,0,0,0-.13.86v6.7h-.21l-5.24-6.4v4.89a1.63,1.63,0,0,0,.16.91.88.88,0,0,0,.69.25h.28v.22H257v-.22h.28A.81.81,0,0,0,258,43a1.78,1.78,0,0,0,.13-.86V36.66a3.63,3.63,0,0,0-.52-.53,1.93,1.93,0,0,0-.53-.24,1.87,1.87,0,0,0-.52-.05Z"/><path class="cls-9" d="M272.32,35.62l.09,1.86h-.22a2.25,2.25,0,0,0-.18-.7,1.17,1.17,0,0,0-.48-.5,1.69,1.69,0,0,0-.79-.16h-1.12v6.07a1.63,1.63,0,0,0,.16.91.88.88,0,0,0,.69.25h.28v.22h-3.37v-.22h.28a.81.81,0,0,0,.71-.3,1.78,1.78,0,0,0,.13-.86V36.12h-1a2.66,2.66,0,0,0-.79.08,1.09,1.09,0,0,0-.52.43,1.73,1.73,0,0,0-.26.86h-.22l.09-1.86Z"/><path class="cls-9" d="M281,35.44v2.75h-.22a3.42,3.42,0,0,0-.38-1.26,2,2,0,0,0-.78-.74,2.15,2.15,0,0,0-1-.28,1.42,1.42,0,0,0-1,.37,1.13,1.13,0,0,0-.4.85,1,1,0,0,0,.25.66A6.48,6.48,0,0,0,279.15,39a12,12,0,0,1,1.52.92,2.24,2.24,0,0,1,.63.75,2,2,0,0,1,.22.91,2.06,2.06,0,0,1-.7,1.56,2.54,2.54,0,0,1-1.8.65,3.82,3.82,0,0,1-.65-.05,6.68,6.68,0,0,1-.75-.21,3.38,3.38,0,0,0-.72-.18.3.3,0,0,0-.23.09.7.7,0,0,0-.13.36h-.22V41h.22a3.85,3.85,0,0,0,.41,1.28,2,2,0,0,0,.79.71,2.44,2.44,0,0,0,1.16.28,1.66,1.66,0,0,0,1.16-.39,1.2,1.2,0,0,0,.42-.91,1.24,1.24,0,0,0-.16-.59,1.77,1.77,0,0,0-.5-.56,14.33,14.33,0,0,0-1.25-.75,12.07,12.07,0,0,1-1.45-.91,2.46,2.46,0,0,1-.65-.75,1.86,1.86,0,0,1-.22-.9,2,2,0,0,1,.66-1.47,2.34,2.34,0,0,1,1.67-.62,3.35,3.35,0,0,1,1.34.31,1.38,1.38,0,0,0,.46.15.35.35,0,0,0,.25-.09.73.73,0,0,0,.15-.37Z"/><path class="cls-9" d="M287.89,35.84v-.22h2.81v.22h-.3a.81.81,0,0,0-.72.39,1.79,1.79,0,0,0-.12.84v3.22a5.7,5.7,0,0,1-.24,1.85,2.33,2.33,0,0,1-.93,1.13,3.32,3.32,0,0,1-1.89.47,3.56,3.56,0,0,1-2-.45,2.44,2.44,0,0,1-1-1.21,6.73,6.73,0,0,1-.19-2V37a1.56,1.56,0,0,0-.2-1,.83.83,0,0,0-.65-.23h-.3v-.22h3.43v.22h-.3a.79.79,0,0,0-.7.31,1.73,1.73,0,0,0-.15.88v3.46a7.65,7.65,0,0,0,.09,1.06,2.26,2.26,0,0,0,.31.93,1.68,1.68,0,0,0,.64.55,2.21,2.21,0,0,0,1,.22,2.83,2.83,0,0,0,1.39-.34,1.82,1.82,0,0,0,.84-.87,5,5,0,0,0,.22-1.8V37a1.64,1.64,0,0,0-.16-.93.86.86,0,0,0-.68-.26Z"/><path class="cls-9" d="M293.29,39.84v2.31a1.62,1.62,0,0,0,.16.93.84.84,0,0,0,.67.26h.3v.22H291v-.22h.3A.8.8,0,0,0,292,43a1.93,1.93,0,0,0,.12-.86V37a1.67,1.67,0,0,0-.16-.93.86.86,0,0,0-.68-.26H291v-.22h2.91a5.16,5.16,0,0,1,1.68.22,2.31,2.31,0,0,1,1,.74,1.9,1.9,0,0,1,.42,1.24,2.08,2.08,0,0,1-.64,1.58,2.53,2.53,0,0,1-1.81.61,5.13,5.13,0,0,1-.62,0Q293.67,39.93,293.29,39.84Zm0-.33.55.09.41,0a1.39,1.39,0,0,0,1.05-.47,1.71,1.71,0,0,0,.44-1.22,2.2,2.2,0,0,0-.21-1,1.46,1.46,0,0,0-.6-.66,1.75,1.75,0,0,0-.88-.22,3.47,3.47,0,0,0-.77.11Z"/><path class="cls-9" d="M300,36.05v3.14h1.75a1.42,1.42,0,0,0,.91-.21A1.32,1.32,0,0,0,303,38h.22V40.8H303a3,3,0,0,0-.16-.74.73.73,0,0,0-.35-.32,1.76,1.76,0,0,0-.74-.12H300v2.62a2.44,2.44,0,0,0,0,.64.37.37,0,0,0,.16.18,1,1,0,0,0,.45.07H302a3.65,3.65,0,0,0,1-.09,1.46,1.46,0,0,0,.59-.37,4.51,4.51,0,0,0,.74-1.1h.23l-.69,2h-6.12v-.22H298a1.12,1.12,0,0,0,.53-.13.49.49,0,0,0,.25-.28,2.75,2.75,0,0,0,.07-.77V37a1.71,1.71,0,0,0-.15-.93.91.91,0,0,0-.7-.23h-.28v-.22h6.12l.09,1.74h-.23a2.74,2.74,0,0,0-.27-.86.93.93,0,0,0-.44-.36,2.65,2.65,0,0,0-.83-.09Zm2.49-3-1.73,2h-.2l.62-2Z"/><path class="cls-9" d="M312.94,43.56h-2.12l-2.69-3.71h-.83v2.31a1.62,1.62,0,0,0,.16.93.83.83,0,0,0,.67.26h.31v.22H305v-.22h.3a.8.8,0,0,0,.72-.33,1.85,1.85,0,0,0,.12-.86V37a1.62,1.62,0,0,0-.16-.93.86.86,0,0,0-.68-.26H305v-.22h2.89a6.88,6.88,0,0,1,1.87.18,2.14,2.14,0,0,1,1,.68,1.77,1.77,0,0,1,.42,1.18,1.86,1.86,0,0,1-.48,1.27,2.69,2.69,0,0,1-1.48.76L310.92,42a4.08,4.08,0,0,0,1,1,2.44,2.44,0,0,0,1.05.33Zm-5.64-4.08h.33a2.58,2.58,0,0,0,1.71-.49,1.58,1.58,0,0,0,.58-1.25,1.64,1.64,0,0,0-.47-1.21,1.66,1.66,0,0,0-1.23-.47,5.17,5.17,0,0,0-.92.11Z"/><path class="cls-9" d="M316.54,43.35v.22h-3.4v-.22h.28a.85.85,0,0,0,.71-.29,1.79,1.79,0,0,0,.14-.9V37a2.63,2.63,0,0,0-.08-.8A.53.53,0,0,0,314,36a1.11,1.11,0,0,0-.54-.14h-.28v-.22h3.4v.22h-.29a.84.84,0,0,0-.71.29,1.72,1.72,0,0,0-.15.9v5.13a2.63,2.63,0,0,0,.08.8.52.52,0,0,0,.25.25,1.08,1.08,0,0,0,.53.14Z"/><path class="cls-9" d="M319.34,36.05v3.14h1.75A1.42,1.42,0,0,0,322,39a1.32,1.32,0,0,0,.34-.95h.22V40.8h-.22a3,3,0,0,0-.16-.74.73.73,0,0,0-.35-.32,1.77,1.77,0,0,0-.74-.12h-1.75v2.62a2.43,2.43,0,0,0,0,.64.37.37,0,0,0,.16.18,1,1,0,0,0,.45.07h1.35a3.65,3.65,0,0,0,1-.09,1.46,1.46,0,0,0,.59-.37,4.51,4.51,0,0,0,.74-1.1h.23l-.69,2h-6.12v-.22h.28a1.12,1.12,0,0,0,.53-.13.49.49,0,0,0,.25-.28,2.75,2.75,0,0,0,.07-.77V37a1.71,1.71,0,0,0-.15-.93.91.91,0,0,0-.7-.23h-.28v-.22h6.12l.09,1.74h-.23a2.74,2.74,0,0,0-.27-.86.93.93,0,0,0-.44-.36,2.65,2.65,0,0,0-.83-.09Z"/><path class="cls-9" d="M329.89,35.84v-.22h2.81v.22h-.3a.81.81,0,0,0-.72.39,1.79,1.79,0,0,0-.12.84v3.22a5.69,5.69,0,0,1-.24,1.85,2.33,2.33,0,0,1-.93,1.13,3.32,3.32,0,0,1-1.89.47,3.56,3.56,0,0,1-2-.45,2.44,2.44,0,0,1-1-1.21,6.73,6.73,0,0,1-.19-2V37a1.55,1.55,0,0,0-.2-1,.83.83,0,0,0-.65-.23h-.3v-.22h3.43v.22h-.3a.79.79,0,0,0-.7.31,1.74,1.74,0,0,0-.15.88v3.46a7.62,7.62,0,0,0,.08,1.06,2.26,2.26,0,0,0,.31.93,1.67,1.67,0,0,0,.64.55,2.22,2.22,0,0,0,1,.22,2.84,2.84,0,0,0,1.39-.34,1.82,1.82,0,0,0,.84-.87,5,5,0,0,0,.23-1.8V37a1.64,1.64,0,0,0-.16-.93.86.86,0,0,0-.68-.26Z"/><path class="cls-9" d="M340.94,43.56h-2.12l-2.69-3.71h-.83v2.31a1.62,1.62,0,0,0,.16.93.83.83,0,0,0,.67.26h.31v.22H333v-.22h.3a.8.8,0,0,0,.72-.33,1.85,1.85,0,0,0,.12-.86V37a1.62,1.62,0,0,0-.16-.93.86.86,0,0,0-.68-.26H333v-.22h2.89a6.88,6.88,0,0,1,1.87.18,2.14,2.14,0,0,1,1,.68,1.77,1.77,0,0,1,.42,1.18,1.86,1.86,0,0,1-.48,1.27,2.69,2.69,0,0,1-1.48.76L338.92,42a4.08,4.08,0,0,0,1,1,2.44,2.44,0,0,0,1.05.33Zm-5.64-4.08h.33a2.58,2.58,0,0,0,1.71-.49,1.58,1.58,0,0,0,.58-1.25,1.64,1.64,0,0,0-.47-1.21,1.66,1.66,0,0,0-1.23-.47,5.17,5.17,0,0,0-.92.11Z"/><path class="cls-9" d="M341.48,45.56V45.3a1.92,1.92,0,0,0,.93-.62,1.41,1.41,0,0,0,.33-.89.32.32,0,0,0-.05-.19.11.11,0,0,0-.08-.05.86.86,0,0,0-.28.12.49.49,0,0,1-.22.05.62.62,0,0,1-.46-.17.63.63,0,0,1-.17-.47.65.65,0,0,1,.22-.49.76.76,0,0,1,.54-.21.9.9,0,0,1,.69.34,1.29,1.29,0,0,1,.3.89,1.75,1.75,0,0,1-.42,1.12A2.77,2.77,0,0,1,341.48,45.56Z"/><path class="cls-9" d="M194.7,59.06v-.22h.3a.79.79,0,0,0,.71-.32,1.84,1.84,0,0,0,.13-.87V52.52a1.64,1.64,0,0,0-.16-.93.86.86,0,0,0-.68-.26h-.3v-.22h3.23a7.06,7.06,0,0,1,2.71.4,3.22,3.22,0,0,1,1.49,1.35,4.16,4.16,0,0,1,.57,2.18,4,4,0,0,1-1,2.77,4.43,4.43,0,0,1-3.45,1.24Zm2.27-.57a6,6,0,0,0,1.25.16,3,3,0,0,0,2.26-1,4.2,4.2,0,0,0,0-5.19,3,3,0,0,0-2.3-.95,5,5,0,0,0-1.2.17Z"/><path class="cls-9" d="M205.67,51.55v3.14h1.75a1.42,1.42,0,0,0,.91-.21,1.32,1.32,0,0,0,.34-.95h.22V56.3h-.22a3,3,0,0,0-.16-.74.73.73,0,0,0-.35-.32,1.77,1.77,0,0,0-.74-.12h-1.75v2.62a2.43,2.43,0,0,0,0,.64.37.37,0,0,0,.16.18,1,1,0,0,0,.45.07h1.35a3.65,3.65,0,0,0,1-.09,1.46,1.46,0,0,0,.59-.37,4.51,4.51,0,0,0,.74-1.1h.23l-.69,2h-6.12v-.22h.28a1.12,1.12,0,0,0,.53-.13.49.49,0,0,0,.25-.28,2.75,2.75,0,0,0,.07-.77V52.5a1.71,1.71,0,0,0-.15-.93.91.91,0,0,0-.7-.23h-.28v-.22h6.12l.09,1.74h-.23a2.74,2.74,0,0,0-.27-.86.93.93,0,0,0-.44-.36,2.65,2.65,0,0,0-.83-.09Z"/><path class="cls-9" d="M220.37,56.87l.19,0-.68,2.16h-6.15v-.22h.3a.8.8,0,0,0,.72-.33,1.89,1.89,0,0,0,.12-.87V52.52a1.64,1.64,0,0,0-.16-.93.86.86,0,0,0-.68-.26h-.3v-.22h3.6v.22a2.2,2.2,0,0,0-.89.12.71.71,0,0,0-.35.31,2.56,2.56,0,0,0-.09.9v5a1.62,1.62,0,0,0,.09.67.42.42,0,0,0,.22.18,3.81,3.81,0,0,0,.91.06h.58a4.2,4.2,0,0,0,1.28-.13,1.67,1.67,0,0,0,.67-.48A3.92,3.92,0,0,0,220.37,56.87Z"/><path class="cls-9" d="M226.31,56.4h-3.08l-.54,1.25a2,2,0,0,0-.2.69.4.4,0,0,0,.17.32,1.52,1.52,0,0,0,.75.18v.22h-2.5v-.22a1.35,1.35,0,0,0,.64-.23,3.59,3.59,0,0,0,.66-1.14L225,50.94h.21L228,57.55a3,3,0,0,0,.61,1,1.24,1.24,0,0,0,.76.27v.22h-3.13v-.22a1.17,1.17,0,0,0,.64-.16.41.41,0,0,0,.17-.33,2.43,2.43,0,0,0-.23-.81Zm-.16-.43-1.35-3.21L223.42,56Z"/><path class="cls-9" d="M239.94,59.06h-2.12l-2.69-3.71h-.83v2.31a1.62,1.62,0,0,0,.16.93.84.84,0,0,0,.67.26h.31v.22H232v-.22h.3a.8.8,0,0,0,.72-.33,1.85,1.85,0,0,0,.12-.86V52.52a1.62,1.62,0,0,0-.16-.93.86.86,0,0,0-.68-.26H232v-.22h2.89a6.88,6.88,0,0,1,1.87.18,2.14,2.14,0,0,1,1,.68,1.77,1.77,0,0,1,.42,1.18,1.86,1.86,0,0,1-.48,1.27,2.7,2.7,0,0,1-1.48.76l1.64,2.28a4.07,4.07,0,0,0,1,1,2.44,2.44,0,0,0,1.05.33ZM234.29,55h.33a2.58,2.58,0,0,0,1.71-.49,1.58,1.58,0,0,0,.58-1.25,1.64,1.64,0,0,0-.47-1.21,1.66,1.66,0,0,0-1.23-.47,5.17,5.17,0,0,0-.92.11Z"/><path class="cls-9" d="M242.34,51.55v3.14h1.75a1.42,1.42,0,0,0,.91-.21,1.32,1.32,0,0,0,.34-.95h.22V56.3h-.22a3,3,0,0,0-.16-.74.73.73,0,0,0-.35-.32,1.77,1.77,0,0,0-.74-.12h-1.75v2.62a2.43,2.43,0,0,0,0,.64.37.37,0,0,0,.16.18,1,1,0,0,0,.45.07h1.35a3.65,3.65,0,0,0,1-.09,1.46,1.46,0,0,0,.59-.37,4.51,4.51,0,0,0,.74-1.1h.23l-.69,2h-6.12v-.22h.28a1.11,1.11,0,0,0,.53-.13.49.49,0,0,0,.25-.28,2.74,2.74,0,0,0,.07-.77V52.5a1.71,1.71,0,0,0-.15-.93.91.91,0,0,0-.7-.23h-.28v-.22h6.12l.09,1.74h-.23a2.74,2.74,0,0,0-.27-.86.93.93,0,0,0-.44-.36,2.65,2.65,0,0,0-.83-.09Z"/><path class="cls-9" d="M254.39,50.94l.18,2.7h-.18a3.4,3.4,0,0,0-1-1.75,2.53,2.53,0,0,0-1.62-.53A2.51,2.51,0,0,0,249.3,53a5.7,5.7,0,0,0-.37,2.19,4.64,4.64,0,0,0,.35,1.87,2.59,2.59,0,0,0,1,1.21,3,3,0,0,0,1.59.42,2.75,2.75,0,0,0,1.37-.33,4.5,4.5,0,0,0,1.3-1.32l.18.12a4.17,4.17,0,0,1-1.39,1.55,3.53,3.53,0,0,1-1.89.49,3.58,3.58,0,0,1-3.06-1.46,4.19,4.19,0,0,1-.81-2.57,4.56,4.56,0,0,1,.53-2.19,3.85,3.85,0,0,1,1.47-1.54,4,4,0,0,1,2-.55,3.74,3.74,0,0,1,1.7.42.92.92,0,0,0,.35.13.39.39,0,0,0,.28-.11.91.91,0,0,0,.22-.44Z"/><path class="cls-9" d="M257.63,54.8h3.69V52.53a2.66,2.66,0,0,0-.08-.8.52.52,0,0,0-.25-.25,1.08,1.08,0,0,0-.53-.14h-.28v-.22h3.4v.22h-.28a1.12,1.12,0,0,0-.53.13.49.49,0,0,0-.26.28,2.83,2.83,0,0,0-.07.78v5.13a2.63,2.63,0,0,0,.08.8.53.53,0,0,0,.24.25,1.11,1.11,0,0,0,.54.14h.28v.22h-3.4v-.22h.28a.84.84,0,0,0,.71-.29,1.72,1.72,0,0,0,.15-.9V55.24h-3.69v2.42a2.63,2.63,0,0,0,.08.8.52.52,0,0,0,.25.25,1.08,1.08,0,0,0,.53.14h.29v.22h-3.4v-.22h.28a.85.85,0,0,0,.71-.29,1.78,1.78,0,0,0,.14-.9V52.53a2.66,2.66,0,0,0-.08-.8.53.53,0,0,0-.24-.25,1.11,1.11,0,0,0-.54-.14h-.28v-.22h3.4v.22h-.29a1.12,1.12,0,0,0-.53.13.51.51,0,0,0-.25.28,2.71,2.71,0,0,0-.07.78Z"/><path class="cls-9" d="M266.34,51.55v3.14h1.75a1.42,1.42,0,0,0,.91-.21,1.32,1.32,0,0,0,.34-.95h.22V56.3h-.22a3,3,0,0,0-.16-.74.73.73,0,0,0-.35-.32,1.77,1.77,0,0,0-.74-.12h-1.75v2.62a2.43,2.43,0,0,0,0,.64.37.37,0,0,0,.16.18,1,1,0,0,0,.45.07h1.35a3.65,3.65,0,0,0,1-.09,1.46,1.46,0,0,0,.59-.37,4.51,4.51,0,0,0,.74-1.1h.23l-.69,2h-6.12v-.22h.28a1.11,1.11,0,0,0,.53-.13.49.49,0,0,0,.25-.28,2.74,2.74,0,0,0,.07-.77V52.5a1.71,1.71,0,0,0-.15-.93.91.91,0,0,0-.7-.23h-.28v-.22h6.12l.09,1.74h-.23a2.74,2.74,0,0,0-.27-.86.93.93,0,0,0-.44-.36,2.65,2.65,0,0,0-.83-.09Z"/><path class="cls-9" d="M279.27,59.06h-2.12l-2.69-3.71h-.83v2.31a1.62,1.62,0,0,0,.16.93.84.84,0,0,0,.67.26h.31v.22h-3.4v-.22h.3a.8.8,0,0,0,.72-.33,1.85,1.85,0,0,0,.12-.86V52.52a1.62,1.62,0,0,0-.16-.93.86.86,0,0,0-.68-.26h-.3v-.22h2.89a6.88,6.88,0,0,1,1.87.18,2.14,2.14,0,0,1,1,.68,1.77,1.77,0,0,1,.42,1.18,1.86,1.86,0,0,1-.48,1.27,2.69,2.69,0,0,1-1.48.76l1.64,2.28a4.08,4.08,0,0,0,1,1,2.44,2.44,0,0,0,1.05.33ZM273.63,55H274a2.58,2.58,0,0,0,1.71-.49,1.58,1.58,0,0,0,.58-1.25,1.64,1.64,0,0,0-.47-1.21,1.66,1.66,0,0,0-1.23-.47,5.17,5.17,0,0,0-.92.11Z"/><path class="cls-9" d="M286.39,50.94l.18,2.7h-.18a3.4,3.4,0,0,0-1-1.75,2.53,2.53,0,0,0-1.62-.53A2.51,2.51,0,0,0,281.3,53a5.7,5.7,0,0,0-.37,2.19,4.64,4.64,0,0,0,.35,1.87,2.59,2.59,0,0,0,1,1.21,3,3,0,0,0,1.59.42,2.75,2.75,0,0,0,1.37-.33,4.5,4.5,0,0,0,1.3-1.32l.18.12a4.17,4.17,0,0,1-1.39,1.55,3.53,3.53,0,0,1-1.89.49,3.58,3.58,0,0,1-3.06-1.46,4.19,4.19,0,0,1-.81-2.57,4.56,4.56,0,0,1,.53-2.19,3.85,3.85,0,0,1,1.47-1.54,4,4,0,0,1,2-.55,3.74,3.74,0,0,1,1.7.42.92.92,0,0,0,.35.13.39.39,0,0,0,.28-.11.91.91,0,0,0,.22-.44Z"/><path class="cls-9" d="M289.64,54.8h3.69V52.53a2.66,2.66,0,0,0-.08-.8.52.52,0,0,0-.25-.25,1.08,1.08,0,0,0-.53-.14h-.28v-.22h3.4v.22h-.28a1.12,1.12,0,0,0-.53.13.49.49,0,0,0-.25.28,2.81,2.81,0,0,0-.07.78v5.13a2.63,2.63,0,0,0,.08.8.53.53,0,0,0,.24.25,1.11,1.11,0,0,0,.54.14h.28v.22h-3.4v-.22h.28a.84.84,0,0,0,.71-.29,1.72,1.72,0,0,0,.15-.9V55.24h-3.69v2.42a2.63,2.63,0,0,0,.08.8.52.52,0,0,0,.25.25,1.08,1.08,0,0,0,.53.14h.29v.22h-3.4v-.22h.28a.85.85,0,0,0,.71-.29,1.78,1.78,0,0,0,.14-.9V52.53a2.66,2.66,0,0,0-.08-.8.53.53,0,0,0-.24-.25,1.11,1.11,0,0,0-.54-.14h-.28v-.22h3.4v.22h-.29a1.12,1.12,0,0,0-.53.13.51.51,0,0,0-.25.28,2.71,2.71,0,0,0-.07.78Z"/><path class="cls-9" d="M298.34,51.55v3.14h1.75a1.42,1.42,0,0,0,.91-.21,1.32,1.32,0,0,0,.34-.95h.22V56.3h-.22a3,3,0,0,0-.16-.74.73.73,0,0,0-.35-.32,1.77,1.77,0,0,0-.74-.12h-1.75v2.62a2.43,2.43,0,0,0,0,.64.37.37,0,0,0,.16.18,1,1,0,0,0,.45.07h1.35a3.65,3.65,0,0,0,1-.09,1.46,1.46,0,0,0,.59-.37,4.51,4.51,0,0,0,.74-1.1h.23l-.69,2h-6.12v-.22h.28a1.11,1.11,0,0,0,.53-.13.49.49,0,0,0,.25-.28,2.74,2.74,0,0,0,.07-.77V52.5a1.71,1.71,0,0,0-.15-.93.91.91,0,0,0-.7-.23h-.28v-.22h6.12l.09,1.74h-.23a2.74,2.74,0,0,0-.27-.86.93.93,0,0,0-.44-.36,2.65,2.65,0,0,0-.83-.09Z"/><path class="cls-9" d="M191.45,67.05v3.14h1.75a1.42,1.42,0,0,0,.91-.21,1.32,1.32,0,0,0,.34-.95h.22V71.8h-.22a3,3,0,0,0-.16-.74.73.73,0,0,0-.35-.32,1.76,1.76,0,0,0-.74-.12h-1.75v2.62a2.44,2.44,0,0,0,0,.64.37.37,0,0,0,.16.18,1,1,0,0,0,.45.07h1.35a3.65,3.65,0,0,0,1-.09,1.46,1.46,0,0,0,.59-.37,4.51,4.51,0,0,0,.74-1.1H196l-.69,2h-6.12v-.22h.28a1.12,1.12,0,0,0,.53-.13.5.5,0,0,0,.26-.28,2.77,2.77,0,0,0,.07-.77V68a1.71,1.71,0,0,0-.15-.93.91.91,0,0,0-.7-.23h-.28v-.22h6.12l.09,1.74h-.23a2.75,2.75,0,0,0-.27-.86.94.94,0,0,0-.44-.36,2.65,2.65,0,0,0-.83-.09Z"/><path class="cls-9" d="M203.22,66.62l.09,1.86h-.22a2.25,2.25,0,0,0-.18-.7,1.17,1.17,0,0,0-.48-.5,1.69,1.69,0,0,0-.79-.16h-1.12v6.07a1.63,1.63,0,0,0,.16.91.88.88,0,0,0,.69.25h.28v.22h-3.37v-.22h.28a.81.81,0,0,0,.71-.3,1.78,1.78,0,0,0,.13-.86V67.12h-1a2.66,2.66,0,0,0-.79.08,1.09,1.09,0,0,0-.52.43,1.73,1.73,0,0,0-.26.86h-.22l.09-1.86Z"/><path class="cls-9" d="M206.59,74.56v-.22h.3a.79.79,0,0,0,.71-.32,1.84,1.84,0,0,0,.13-.87V68a1.64,1.64,0,0,0-.16-.93.86.86,0,0,0-.68-.26h-.3v-.22h3.23a7.07,7.07,0,0,1,2.71.4A3.22,3.22,0,0,1,214,68.37a4.16,4.16,0,0,1,.56,2.18,4,4,0,0,1-1,2.77,4.43,4.43,0,0,1-3.45,1.24Zm2.27-.57a6,6,0,0,0,1.25.16,3,3,0,0,0,2.26-1,4.2,4.2,0,0,0,0-5.19,3,3,0,0,0-2.3-.95,5,5,0,0,0-1.2.17Z"/><path class="cls-9" d="M217.56,67.05v3.14h1.75a1.42,1.42,0,0,0,.91-.21,1.32,1.32,0,0,0,.34-.95h.22V71.8h-.22a3,3,0,0,0-.16-.74.73.73,0,0,0-.35-.32,1.77,1.77,0,0,0-.74-.12h-1.75v2.62a2.43,2.43,0,0,0,0,.64.37.37,0,0,0,.16.18,1,1,0,0,0,.45.07h1.35a3.65,3.65,0,0,0,1-.09,1.46,1.46,0,0,0,.59-.37,4.51,4.51,0,0,0,.74-1.1h.23l-.69,2H215.3v-.22h.28a1.12,1.12,0,0,0,.53-.13.49.49,0,0,0,.26-.28,2.77,2.77,0,0,0,.07-.77V68a1.71,1.71,0,0,0-.15-.93.91.91,0,0,0-.7-.23h-.28v-.22h6.12l.09,1.74h-.23a2.75,2.75,0,0,0-.27-.86.94.94,0,0,0-.44-.36,2.65,2.65,0,0,0-.83-.09Z"/><path class="cls-9" d="M232.26,72.37l.19,0-.68,2.16h-6.15v-.22h.3a.8.8,0,0,0,.72-.33,1.89,1.89,0,0,0,.12-.87V68a1.64,1.64,0,0,0-.16-.93.86.86,0,0,0-.68-.26h-.3v-.22h3.6v.22a2.19,2.19,0,0,0-.89.12.72.72,0,0,0-.35.31,2.56,2.56,0,0,0-.09.9v5a1.62,1.62,0,0,0,.09.67.42.42,0,0,0,.22.18,3.81,3.81,0,0,0,.91.06h.58a4.2,4.2,0,0,0,1.28-.13,1.67,1.67,0,0,0,.67-.48A3.91,3.91,0,0,0,232.26,72.37Z"/><path class="cls-9" d="M233,69.47V69.2a2.66,2.66,0,0,0,.82-.67A.92.92,0,0,0,234,68a.46.46,0,0,0-.06-.27.2.2,0,0,0-.15-.09.5.5,0,0,0-.17,0,.8.8,0,0,1-.25.05.63.63,0,0,1-.42-1.07.84.84,0,0,1,.59-.22,1,1,0,0,1,.71.33,1.15,1.15,0,0,1,.31.82,1.82,1.82,0,0,1-.52,1.26A2.56,2.56,0,0,1,233,69.47Z"/><path class="cls-9" d="M239.31,74.35v.22h-3.4v-.22h.28a.85.85,0,0,0,.71-.29,1.78,1.78,0,0,0,.14-.9V68a2.63,2.63,0,0,0-.08-.8.53.53,0,0,0-.24-.25,1.11,1.11,0,0,0-.54-.14h-.28v-.22h3.4v.22H239a.84.84,0,0,0-.71.29,1.72,1.72,0,0,0-.15.9v5.13a2.63,2.63,0,0,0,.08.8.52.52,0,0,0,.25.25,1.08,1.08,0,0,0,.53.14Z"/><path class="cls-9" d="M239.45,66.62h2.16l4.86,6V68a1.58,1.58,0,0,0-.16-.91.87.87,0,0,0-.69-.25h-.28v-.22h2.77v.22h-.28a.81.81,0,0,0-.71.3A1.78,1.78,0,0,0,247,68v6.7h-.21l-5.24-6.4v4.89a1.63,1.63,0,0,0,.16.91.88.88,0,0,0,.69.25h.28v.22h-2.77v-.22h.28a.81.81,0,0,0,.72-.3,1.78,1.78,0,0,0,.13-.86V67.66a3.63,3.63,0,0,0-.52-.53,1.93,1.93,0,0,0-.53-.24,1.86,1.86,0,0,0-.52-.05Z"/><path class="cls-9" d="M248.11,66.62h2.16l4.86,6V68a1.58,1.58,0,0,0-.16-.91.87.87,0,0,0-.69-.25H254v-.22h2.77v.22h-.28a.81.81,0,0,0-.71.3,1.78,1.78,0,0,0-.13.86v6.7h-.21l-5.24-6.4v4.89a1.63,1.63,0,0,0,.16.91.88.88,0,0,0,.69.25h.28v.22h-2.77v-.22h.28a.81.81,0,0,0,.72-.3,1.78,1.78,0,0,0,.13-.86V67.66a3.63,3.63,0,0,0-.52-.53,1.93,1.93,0,0,0-.53-.24,1.87,1.87,0,0,0-.52-.05Z"/><path class="cls-9" d="M261.33,66.44A3.61,3.61,0,0,1,264,67.61a4.06,4.06,0,0,1,1.13,2.93,4.18,4.18,0,0,1-1.14,3,3.82,3.82,0,0,1-5.52,0,4.18,4.18,0,0,1-1.12-3,4,4,0,0,1,1.29-3.09A3.8,3.8,0,0,1,261.33,66.44Zm-.11.43a2.1,2.1,0,0,0-1.71.79,4.47,4.47,0,0,0-.8,2.88,4.72,4.72,0,0,0,.83,3,2.06,2.06,0,0,0,1.69.8,2.31,2.31,0,0,0,1.85-.87,4.26,4.26,0,0,0,.73-2.75,4.81,4.81,0,0,0-.8-3A2.16,2.16,0,0,0,261.21,66.86Z"/><path class="cls-9" d="M274.12,66.62v.22a1.29,1.29,0,0,0-.64.27,2.43,2.43,0,0,0-.55.88l-2.77,6.76h-.22l-3-6.85a3.77,3.77,0,0,0-.32-.64,1,1,0,0,0-.36-.28,1.67,1.67,0,0,0-.58-.13v-.22H269v.22a1.48,1.48,0,0,0-.71.19.43.43,0,0,0-.16.35,2.65,2.65,0,0,0,.27.91l2,4.66,1.88-4.6a3.1,3.1,0,0,0,.28-.94.44.44,0,0,0-.17-.33,1.12,1.12,0,0,0-.57-.22l-.1,0v-.22Z"/><path class="cls-9" d="M278.21,71.9h-3.08l-.54,1.25a2,2,0,0,0-.2.69.4.4,0,0,0,.17.32,1.51,1.51,0,0,0,.75.18v.22h-2.5v-.22a1.35,1.35,0,0,0,.64-.23,3.59,3.59,0,0,0,.66-1.14l2.79-6.54h.21L279.89,73a3,3,0,0,0,.61,1,1.23,1.23,0,0,0,.76.27v.22h-3.13v-.22a1.18,1.18,0,0,0,.64-.16.41.41,0,0,0,.17-.33,2.43,2.43,0,0,0-.23-.81Zm-.16-.43-1.35-3.21-1.38,3.21Z"/><path class="cls-9" d="M287,66.62l.09,1.86h-.22a2.25,2.25,0,0,0-.18-.7,1.17,1.17,0,0,0-.48-.5,1.69,1.69,0,0,0-.79-.16h-1.12v6.07a1.63,1.63,0,0,0,.16.91.88.88,0,0,0,.69.25h.28v.22H282v-.22h.28A.81.81,0,0,0,283,74a1.78,1.78,0,0,0,.13-.86V67.12h-1a2.66,2.66,0,0,0-.79.08,1.09,1.09,0,0,0-.52.43,1.73,1.73,0,0,0-.26.86h-.22l.09-1.86Z"/><path class="cls-9" d="M291.09,74.35v.22h-3.4v-.22H288a.85.85,0,0,0,.71-.29,1.78,1.78,0,0,0,.14-.9V68a2.63,2.63,0,0,0-.08-.8.53.53,0,0,0-.24-.25,1.11,1.11,0,0,0-.54-.14h-.28v-.22h3.4v.22h-.29a.84.84,0,0,0-.71.29,1.72,1.72,0,0,0-.15.9v5.13a2.63,2.63,0,0,0,.08.8.52.52,0,0,0,.25.25,1.08,1.08,0,0,0,.53.14Z"/><path class="cls-9" d="M295.77,66.44a3.6,3.6,0,0,1,2.68,1.17,4.06,4.06,0,0,1,1.13,2.93,4.18,4.18,0,0,1-1.14,3,3.82,3.82,0,0,1-5.52,0,4.18,4.18,0,0,1-1.12-3,4,4,0,0,1,1.29-3.09A3.8,3.8,0,0,1,295.77,66.44Zm-.11.43a2.1,2.1,0,0,0-1.71.79,4.47,4.47,0,0,0-.8,2.88,4.72,4.72,0,0,0,.83,3,2.06,2.06,0,0,0,1.69.8,2.3,2.3,0,0,0,1.85-.87,4.26,4.26,0,0,0,.73-2.75,4.81,4.81,0,0,0-.8-3A2.17,2.17,0,0,0,295.66,66.86Z"/><path class="cls-9" d="M299.89,66.62h2.16l4.86,6V68a1.58,1.58,0,0,0-.16-.91.87.87,0,0,0-.69-.25h-.28v-.22h2.77v.22h-.28a.81.81,0,0,0-.71.3,1.78,1.78,0,0,0-.13.86v6.7h-.21L302,68.29v4.89a1.63,1.63,0,0,0,.16.91.88.88,0,0,0,.69.25h.28v.22h-2.77v-.22h.28a.81.81,0,0,0,.72-.3,1.78,1.78,0,0,0,.13-.86V67.66a3.61,3.61,0,0,0-.53-.53,1.92,1.92,0,0,0-.52-.24,1.87,1.87,0,0,0-.52-.05Z"/></svg>