<?xml version="1.0" encoding="utf-8"?>
<!-- Generator: Adobe Illustrator 22.0.1, SVG Export Plug-In . SVG Version: 6.00 Build 0)  -->
<svg version="1.1" xmlns="http://www.w3.org/2000/svg" xmlns:xlink="http://www.w3.org/1999/xlink" x="0px" y="0px"
	 viewBox="0 0 578.6 263.5" style="enable-background:new 0 0 578.6 263.5;" xml:space="preserve">
<style type="text/css">
	.st0{display:none;fill:#205A7D;}
	.st1{fill:#F0E059;stroke:#1D1D1B;stroke-miterlimit:10;}
	.st2{fill:#6BC0B3;stroke:#1D1D1B;stroke-miterlimit:10;}
	.st3{fill:#61CDBB;stroke:#1D1D1B;stroke-miterlimit:10;}
	.st4{display:none;fill:#F1E15B;stroke:#1D1D1B;stroke-width:0.25;stroke-miterlimit:10;}
	.st5{font-family:'LTUnivers-BasicRegular';}
	.st6{font-size:42px;}
	.st7{fill:#F1E15B;stroke:#1D1D1B;stroke-width:0.5;stroke-miterlimit:10;}
	.st8{display:none;}
	.st9{display:inline;fill:#F0E059;stroke:#1D1D1B;stroke-width:0.25;stroke-miterlimit:10;}
	.st10{display:inline;fill:#6BC0B3;stroke:#1D1D1B;stroke-width:0.25;stroke-miterlimit:10;}
	.st11{fill:#F0E059;stroke:#1D1D1B;stroke-width:0.5;stroke-miterlimit:10;}
	.st12{fill:#6BC0B3;stroke:#1D1D1B;stroke-width:0.5;stroke-miterlimit:10;}
</style>
<g id="Symboles">
	<rect class="st0" width="529.7" height="296.7"/>
	<path class="st1" d="M357,153.5c20.9,7.4,36.2,26.1,36.2,49.7v0.6c0,33.3-26.4,56.6-60.8,56.6s-60.8-23.3-60.8-56.6v-0.6
		c0-23.6,12.8-41.4,33.4-49.7c-16.1-8-30.6-23-30.6-46.8v-0.6c0-31.3,29.7-55.4,58-55.4c27.6,0,50,16.4,57.8,37.9L372.7,93
		c-5.6-15.6-21.3-26-40.3-26c-22.2,0-39.7,16.4-39.7,39.1v0.6c0,25.9,26.4,41.7,44.2,41.7C346,148.9,350.5,151.1,357,153.5z"/>
	<path class="st2" d="M375.7,204.3v-0.5c0-22.5-19.4-38.8-43.3-38.8c-24,0-43.3,16.3-43.3,38.8v0.5c0,20.4,16.2,38.3,43.3,38.3
		S375.7,224.7,375.7,204.3z"/>
	<path class="st3" d="M555,84c-3.1-9.1-8.5-17.6-16-25.4C514.1,32.7,467,15.2,413.1,15.2C343,15.2,274.6,44.8,261.3,84
		c-0.6,1.9-1.2,3.7-1.6,5.6c-0.4,1.9-0.8,6.7-1,8.7c-0.2,1.8-0.3,3.5-0.3,5.3c0,0.1,0,0.2,0,0.2S3.7,106,3.7,98.2
		c0-8.2,234.1-8.4,234.1-8.4s0.9-3.9,1.4-5.8c13.5-44.6,94.9-84,173.9-84c79,0,150.4,39.4,164,83.9c0,0,0.1,2.9-8.6,2.8
		C561,86.7,555,84,555,84z"/>
</g>
<g id="Textes">
	<text transform="matrix(1 0 0 1 17.2834 96.6956)" class="st4 st5 st6">Baromètre</text>
	<g>
		<path class="st7" d="M17.3,59.3h-13V24.6h13.2c5.8,0,11.6,1.8,11.6,8.7c0,4.3-2.5,6.8-6.4,7.9c4.6,0.8,7.7,3.5,7.7,8.4
			C30.4,57.3,23.6,59.3,17.3,59.3z M16.6,29h-6.4v10.4h6c3.7,0,7-1.2,7-5.4C23.1,30.2,20,29,16.6,29z M16.9,43.5h-6.7v11.4h5.7
			c4.1,0,8.4-0.7,8.4-5.7C24.3,44.6,21,43.5,16.9,43.5z"/>
		<path class="st7" d="M51.2,59.3C51,58.1,50.9,57,50.8,56c-2,2.8-4.6,3.8-8,3.8c-4.6,0-8.5-2.4-8.5-7.3c0-8.3,10.4-8.2,16.2-8.2
			c0-0.4,0-0.8,0-1.2c0-3.3-1.1-5.3-4.7-5.3c-2.8,0-4.2,1.2-4.4,4.1h-5.4c0-5.7,4.8-7.4,9.6-7.4c6.4,0,10.2,2.1,10.2,9.2v7.2
			c0,2.8,0.1,5.6,0.5,8.4H51.2z M48.6,47.3c-3.4,0-8.8,0.6-8.8,4.9c0,2.6,2.3,4.1,4.7,4.1c5.3,0,6-4.6,6-9
			C49.9,47.3,49.2,47.3,48.6,47.3z"/>
		<path class="st7" d="M74.9,39.8c-4.8,0-6.4,2.7-6.4,7.2v12.3h-5.6c0,0,0.1-11.4,0-17c0,0-0.1-4.7-0.1-7.2h5.4l0.1,4
			c1.6-2.8,4-4.2,7.4-4.2c0.4,0,0.8,0,1.3,0.1v5C76.3,39.9,75.6,39.8,74.9,39.8z"/>
		<path class="st7" d="M91.4,59.8c-7.9,0-12.5-5.1-12.5-12.8c0-7.6,4.9-12.6,12.6-12.6c7.8,0,12.4,4.9,12.4,12.6
			C104,54.6,99.2,59.8,91.4,59.8z M91.4,38.1c-5,0-6.7,4.7-6.7,9c0,4.3,1.7,9.2,6.7,9.2c5,0,6.7-5,6.7-9.2
			C98.2,42.8,96.5,38.1,91.4,38.1z"/>
		<path class="st7" d="M142,59.3V45.4c0-3.6-0.8-6.7-5.1-6.7c-4.6,0-5.6,3.3-5.6,7.2v13.3h-5.6V45.5c0-3.6-0.7-6.8-5-6.8
			c-4.2,0-5.7,3.5-5.7,7.2v13.4h-5.6V44.4c0-3.1,0-6.1-0.1-9.3h5.5l0.1,3.8c1.8-2.8,4.5-4.1,7.8-4.1c3.6,0,6.3,1.3,7.7,4.7
			c1.8-3.3,4.8-4.7,8.5-4.7c6.5,0,8.6,4.1,8.6,9.9v14.6H142z"/>
		<path class="st7" d="M158.5,48.3v0.4c0,4,2.1,7.6,6.5,7.6c3.1,0,5.2-1.8,5.7-5h5.4c-0.9,6-5.7,8.5-11.2,8.5
			c-7.7,0-11.8-4.8-11.8-12.2c0-7.6,4-13.1,12-13.1c8.6,0,11,6.2,11,13.8H158.5z M165.2,30.9l-7.4-7h6.6l4.8,7H165.2z M165,38.1
			c-4,0-6,3.2-6.3,6.8h12C170.7,41.3,169,38.1,165,38.1z"/>
		<path class="st7" d="M190,59.6c-4.3,0-6.8-1.4-6.8-6V38.8h-4.7V35h4.7v-4.4l5.6-2.3V35h5.5v3.8h-5.5v12.7c0,2.8,0.2,4,3.3,4
			c0.8,0,1.4-0.2,2.3-0.2v3.9C192.9,59.4,191.4,59.6,190,59.6z"/>
		<path class="st7" d="M211.1,39.8c-4.8,0-6.4,2.7-6.4,7.2v12.3h-5.6c0,0,0.1-11.4,0-17c0,0-0.1-4.7-0.1-7.2h5.4l0.1,4
			c1.6-2.8,4-4.2,7.4-4.2c0.4,0,0.8,0,1.3,0.1v5C212.4,39.9,211.7,39.8,211.1,39.8z"/>
		<path class="st7" d="M220.5,48.3v0.4c0,4,2.1,7.6,6.5,7.6c3.1,0,5.2-1.8,5.7-5h5.4c-0.9,6-5.7,8.5-11.2,8.5
			C219,59.8,215,55,215,47.6c0-7.6,4-13.1,12-13.1c8.6,0,11,6.2,11,13.8H220.5z M226.9,38.1c-4,0-6,3.2-6.3,6.8h12
			C232.7,41.3,230.9,38.1,226.9,38.1z"/>
	</g>
	<g class="st8">
		<path class="st9" d="M360.5,219c-8.8,0-13.5-5.8-13.5-14.2c0-8.6,4.7-15,13.8-15c6.3,0,10.8,3.2,11.4,9.8h-4.7
			c-0.3-4-2.6-6.3-6.6-6.3c-6.6,0-8.7,5.7-8.7,11.4c0,5.3,2.3,11.1,8.4,11.1c4.1,0,6.7-2.6,7-6.7h4.6l0.2,0.1
			C371.7,215.8,366.8,219,360.5,219z"/>
		<path class="st9" d="M378.1,183.5v-4.9h5.4v4.9H378.1z M378.3,218.4v-27.9h4.9v27.9H378.3z"/>
		<path class="st9" d="M394.9,205.4v0.6c0,5.1,2.8,9.8,8.4,9.8c4,0,6.6-2.4,7.2-6.3h4.6c-1.1,6.6-5.8,9.6-12.2,9.6
			c-8.7,0-12.9-5.8-12.9-14.1c0-8.3,4.2-14.9,13.2-14.9c9.3,0,12,7.2,12,15.3H394.9z M403.1,193.4c-5.1,0-7.7,4.2-8.1,8.8h15.4
			C410.5,197.6,408.2,193.4,403.1,193.4z"/>
		<path class="st9" d="M441.1,218.4V203c0-4.9-0.6-9-6.5-9c-6,0-7.7,5.5-7.7,10.6v13.9h-4.9v-20.7c0-2.4-0.1-5.6-0.2-7.2h4.8
			l0.2,4.5c2.3-3.2,5.1-4.8,9.1-4.8c7.3,0,9.9,4,9.9,10.9v17.3H441.1z"/>
		<path class="st9" d="M466.3,219c-8.8,0-13.5-5.8-13.5-14.2c0-8.6,4.7-15,13.8-15c6.3,0,10.8,3.2,11.4,9.8h-4.7
			c-0.3-4-2.6-6.3-6.6-6.3c-6.6,0-8.7,5.7-8.7,11.4c0,5.3,2.3,11.1,8.4,11.1c4.1,0,6.7-2.6,7-6.7h4.6l0.2,0.1
			C477.5,215.8,472.6,219,466.3,219z"/>
		<path class="st9" d="M487,205.4v0.6c0,5.1,2.8,9.8,8.4,9.8c4,0,6.6-2.4,7.2-6.3h4.6c-1.1,6.6-5.8,9.6-12.2,9.6
			c-8.7,0-12.9-5.8-12.9-14.1c0-8.3,4.2-14.9,13.2-14.9c9.3,0,12,7.2,12,15.3H487z M495.2,193.4c-5.1,0-7.7,4.2-8.1,8.8h15.4
			C502.6,197.6,500.3,193.4,495.2,193.4z"/>
	</g>
	<g class="st8">
		<path class="st10" d="M366.2,258.7l-0.2-4.4c-2.3,3.2-5,4.7-9,4.7c-7.3,0-10-4-10-10.9v-17.3h4.9v15.4c0,4.9,0.6,9,6.5,9
			c5.8,0,7.7-4.7,7.7-9.8v-14.7h4.9v13.5c0,4.7-0.1,9.5,0.1,14.3H366.2z"/>
		<path class="st10" d="M393.8,258.7h-5.1l-11.4-27.9h5.2l9,23.2l8.8-23.2h4.8L393.8,258.7z"/>
		<path class="st10" d="M413.7,245.7v0.6c0,5.1,2.8,9.8,8.4,9.8c4,0,6.6-2.4,7.2-6.3h4.6c-1.1,6.6-5.8,9.6-12.2,9.6
			c-8.7,0-12.9-5.8-12.9-14.1c0-8.3,4.2-14.9,13.2-14.9c9.3,0,12,7.2,12,15.3H413.7z M421.9,233.6c-5.1,0-7.7,4.2-8.1,8.8h15.4
			C429.3,237.9,427,233.6,421.9,233.6z"/>
		<path class="st10" d="M454.8,235.1c-5.7,0-7.6,3.3-7.6,8.6v15h-4.9V239c0-2.7-0.1-5.5-0.2-8.2h4.7l0.2,4.5c2-3.3,4.7-4.6,8.5-4.6
			c0.5,0,1,0.1,1.5,0.1v4.6C456.4,235.2,455.6,235.1,454.8,235.1z"/>
		<path class="st10" d="M472.3,259c-4.5,0-6.8-1.8-6.8-6.5v-18.3h-5.5v-3.4h5.5v-5.4l4.9-2v7.4h6.2v3.4h-6.2v16.4
			c0,3.1,0.3,4.6,3.8,4.6c0.9,0,1.7-0.2,2.6-0.3v3.7C475.2,258.9,473.8,259,472.3,259z"/>
		<path class="st10" d="M486.9,245.7v0.6c0,5.1,2.8,9.8,8.4,9.8c4,0,6.6-2.4,7.2-6.3h4.6c-1.1,6.6-5.8,9.6-12.2,9.6
			c-8.7,0-12.9-5.8-12.9-14.1c0-8.3,4.2-14.9,13.2-14.9c9.3,0,12,7.2,12,15.3H486.9z M495.2,233.6c-5.1,0-7.7,4.2-8.1,8.8h15.4
			C502.6,237.9,500.2,233.6,495.2,233.6z"/>
	</g>
	<g>
		<path class="st11" d="M417.3,206.2c-9.9,0-15.1-6.3-15.1-15.7c0-9.5,5.6-16.3,15.5-16.3c7.1,0,12.5,3.4,13.2,11h-6.8
			c-0.2-3.9-2.4-6.5-6.4-6.5c-6.4,0-8.3,6.1-8.3,11.5c0,5.1,1.9,11.4,8,11.4c4.2,0,6.4-2.9,6.6-7h7
			C430.9,202.1,425,206.2,417.3,206.2z"/>
		<path class="st11" d="M435.8,168.2V162h7.4v6.2H435.8z M436,205.4v-30.3h7v30.3H436z"/>
		<path class="st11" d="M455.4,191.6v0.5c0,5,2.6,9.5,8.1,9.5c3.9,0,6.5-2.3,7.1-6.2h6.7c-1.1,7.5-7.1,10.6-14,10.6
			c-9.7,0-14.7-6.1-14.7-15.3c0-9.5,5-16.3,15.1-16.3c10.8,0,13.8,7.8,13.8,17.2H455.4z M463.5,178.9c-5,0-7.5,4-7.9,8.5h15.1
			C470.7,182.9,468.5,178.9,463.5,178.9z"/>
		<path class="st11" d="M503.8,205.4v-16.4c0-4.8-0.4-9.3-6.3-9.3c-6.4,0-7.4,6.5-7.4,11.1v14.6h-7v-23.6c0-2.2-0.1-4.4-0.2-6.7h6.9
			l0.1,4.6c2.5-3.4,5.5-5,9.9-5c7.7,0,10.9,4.2,10.9,11.5v19.1H503.8z"/>
		<path class="st11" d="M531.6,206.2c-9.9,0-15.1-6.3-15.1-15.7c0-9.5,5.6-16.3,15.5-16.3c7.1,0,12.5,3.4,13.2,11h-6.8
			c-0.2-3.9-2.4-6.5-6.4-6.5c-6.4,0-8.3,6.1-8.3,11.5c0,5.1,1.9,11.4,8,11.4c4.2,0,6.4-2.9,6.6-7h7
			C545.1,202.1,539.3,206.2,531.6,206.2z"/>
		<path class="st11" d="M554.9,191.6v0.5c0,5,2.6,9.5,8.1,9.5c3.9,0,6.5-2.3,7.1-6.2h6.7c-1.1,7.5-7.1,10.6-14,10.6
			c-9.7,0-14.7-6.1-14.7-15.3c0-9.5,5-16.3,15.1-16.3c10.8,0,13.8,7.8,13.8,17.2H554.9z M563,178.9c-5,0-7.5,4-7.9,8.5h15.1
			C570.2,182.9,568,178.9,563,178.9z"/>
	</g>
	<g>
		<path class="st12" d="M423.6,250l-0.2-4.6c-2.6,3.4-5.4,5-9.8,5c-7.6,0-11-4.3-11-11.5v-19.1h7v16.4c0,4.8,0.4,9.3,6.4,9.3
			c5.9,0,7.4-4.9,7.4-9.9v-15.8h7V239c0,3.6,0.1,7.3,0.2,10.9H423.6z"/>
		<path class="st12" d="M454.9,250h-7.3l-12.5-30.2h7.5l9,23.9l8.8-23.9h6.8L454.9,250z"/>
		<path class="st12" d="M476.1,236.2v0.5c0,5,2.6,9.5,8.1,9.5c3.9,0,6.5-2.3,7.1-6.2h6.7c-1.1,7.5-7.1,10.6-14,10.6
			c-9.7,0-14.7-6.1-14.7-15.3c0-9.5,5-16.3,15.1-16.3c10.8,0,13.8,7.8,13.8,17.2H476.1z M484.2,223.4c-5,0-7.5,4-7.9,8.5h15.1
			C491.3,227.5,489.2,223.4,484.2,223.4z"/>
		<path class="st12" d="M519.9,225.6c-5.9,0-8,3.4-8,8.9V250h-7c0,0,0.1-14.2,0-21.3c0,0-0.1-5.9-0.2-8.9h6.8l0.2,5
			c2-3.5,5-5.2,9.2-5.2c0.5,0,1,0.1,1.6,0.1v6.2C521.6,225.7,520.8,225.6,519.9,225.6z"/>
		<path class="st12" d="M538.2,250.3c-5.4,0-8.5-1.7-8.5-7.5v-18.4h-5.8v-4.7h5.8v-5.5l7-2.8v8.3h6.9v4.7h-6.9v15.8
			c0,3.5,0.3,5,4.1,5c1,0,1.8-0.2,2.9-0.3v4.9C541.8,250.1,540,250.3,538.2,250.3z"/>
		<path class="st12" d="M554.2,236.2v0.5c0,5,2.6,9.5,8.1,9.5c3.9,0,6.5-2.3,7.1-6.2h6.7c-1.1,7.5-7.1,10.6-14,10.6
			c-9.7,0-14.7-6.1-14.7-15.3c0-9.5,5-16.3,15.1-16.3c10.8,0,13.8,7.8,13.8,17.2H554.2z M562.3,223.4c-5,0-7.5,4-7.9,8.5h15.1
			C569.4,227.5,567.3,223.4,562.3,223.4z"/>
	</g>
</g>
</svg>
