<?xml version="1.0" encoding="utf-8"?>
<!-- Generator: Adobe Illustrator 22.0.1, SVG Export Plug-In . SVG Version: 6.00 Build 0)  -->
<svg version="1.1" xmlns="http://www.w3.org/2000/svg" xmlns:xlink="http://www.w3.org/1999/xlink" x="0px" y="0px"
	 viewBox="0 0 578.6 263.5" style="enable-background:new 0 0 578.6 263.5;" xml:space="preserve">
<style type="text/css">
	.st0{fill:#F0E059;stroke:#1D1D1B;stroke-miterlimit:10;}
	.st1{fill:#6BC0B3;stroke:#1D1D1B;stroke-miterlimit:10;}
	.st2{fill:#61CDBB;stroke:#1D1D1B;stroke-miterlimit:10;}
	.st3{fill:#F1E15B;stroke:#1D1D1B;stroke-width:0.5;stroke-miterlimit:10;}
	.st4{fill:#F0E059;stroke:#1D1D1B;stroke-width:0.5;stroke-miterlimit:10;}
	.st5{fill:#6BC0B3;stroke:#1D1D1B;stroke-width:0.5;stroke-miterlimit:10;}
</style>
<g id="Symboles">
	<path class="st0" d="M357,153.5c20.9,7.4,36.2,26.1,36.2,49.7v0.6c0,33.3-26.4,56.6-60.8,56.6s-60.8-23.3-60.8-56.6v-0.6
		c0-23.6,12.8-41.4,33.4-49.7c-16.1-8-30.6-23-30.6-46.8v-0.6c0-31.3,29.7-55.4,58-55.4c27.6,0,50,16.4,57.8,37.9L372.7,93
		c-5.6-15.6-21.3-26-40.3-26c-22.2,0-39.7,16.4-39.7,39.1v0.6c0,25.9,26.4,41.7,44.2,41.7C346,148.9,350.5,151.1,357,153.5z"/>
	<path class="st1" d="M375.7,204.3v-0.5c0-22.5-19.4-38.8-43.3-38.8c-24,0-43.3,16.3-43.3,38.8v0.5c0,20.4,16.2,38.3,43.3,38.3
		S375.7,224.7,375.7,204.3z"/>
	<path class="st2" d="M555,84c-3.1-9.1-8.5-17.6-16-25.4C514.1,32.7,467,15.2,413.1,15.2C343,15.2,274.6,44.8,261.3,84
		c-0.6,1.9-1.2,3.7-1.6,5.6c-0.4,1.9-0.8,6.7-1,8.7c-0.2,1.8-0.3,3.5-0.3,5.3c0,0.1,0,0.2,0,0.2S3.7,106,3.7,98.2
		c0-8.2,234.1-8.4,234.1-8.4s0.9-3.9,1.4-5.8c13.5-44.6,94.9-84,173.9-84c79,0,150.4,39.4,164,83.9c0,0,0.1,2.9-8.6,2.8
		C561,86.7,555,84,555,84z"/>
</g>
<g id="Textes">
	<g>
		<path class="st3" d="M70.2,148.6v-30.4l-11.3,30.4h-5.3l-11.3-30.4v30.4H37v-34.7h9.2l10.3,28.3l10-28.3h9.2v34.7H70.2z"/>
		<path class="st3" d="M94.6,149.1c-7.9,0-12.5-5.1-12.5-12.8c0-7.6,4.9-12.6,12.6-12.6c7.8,0,12.4,4.9,12.4,12.6
			C107.1,143.9,102.3,149.1,94.6,149.1z M94.6,127.4c-5,0-6.7,4.7-6.7,9c0,4.3,1.7,9.2,6.7,9.2c5,0,6.7-5,6.7-9.2
			C101.3,132.1,99.6,127.4,94.6,127.4z"/>
		<path class="st3" d="M129.2,148.6v-13.2c0-3.8-0.3-7.4-5-7.4c-5.1,0-6,5.2-6,8.9v11.7h-5.6v-18.9c0-1.8-0.1-3.6-0.1-5.3h5.5
			l0.1,3.6c2-2.7,4.4-4,7.9-4c6.1,0,8.7,3.4,8.7,9.2v15.3H129.2z"/>
		<path class="st3" d="M141.7,118.8v-4.9h6v4.9H141.7z M141.9,148.6v-24.2h5.6v24.2H141.9z"/>
		<path class="st3" d="M163.1,148.9c-4.3,0-6.8-1.4-6.8-6v-14.7h-4.7v-3.8h4.7V120l5.6-2.3v6.6h5.5v3.8h-5.5v12.7c0,2.8,0.2,4,3.3,4
			c0.8,0,1.4-0.2,2.3-0.2v3.9C165.9,148.7,164.5,148.9,163.1,148.9z"/>
		<path class="st3" d="M183,149.1c-7.9,0-12.5-5.1-12.5-12.8c0-7.6,4.9-12.6,12.6-12.6c7.8,0,12.4,4.9,12.4,12.6
			C195.5,143.9,190.7,149.1,183,149.1z M183,127.4c-5,0-6.7,4.7-6.7,9c0,4.3,1.7,9.2,6.7,9.2c5,0,6.7-5,6.7-9.2
			C189.7,132.1,188,127.4,183,127.4z"/>
		<path class="st3" d="M213,129.1c-4.8,0-6.4,2.7-6.4,7.2v12.3H201c0,0,0.1-11.4,0-17c0,0-0.1-4.7-0.1-7.2h5.4l0.1,4
			c1.6-2.8,4-4.2,7.4-4.2c0.4,0,0.8,0,1.3,0.1v5C214.4,129.2,213.7,129.1,213,129.1z"/>
	</g>
	<g>
		<path class="st3" d="M42.8,47.4v10.5h15.1v4.4H42.8v15.5H37V43h21.8v4.4H42.8z"/>
		<path class="st3" d="M74.5,58.2c-4.8,0-6.4,2.7-6.4,7.2v12.3h-5.6c0,0,0.1-11.4,0-17c0,0-0.1-4.7-0.1-7.2h5.4l0.1,4
			c1.6-2.8,4-4.2,7.4-4.2c0.4,0,0.8,0,1.3,0.1v5C75.8,58.3,75.2,58.2,74.5,58.2z"/>
		<path class="st3" d="M83.9,66.7v0.4c0,4,2.1,7.6,6.5,7.6c3.1,0,5.2-1.8,5.7-5h5.4c-0.9,6-5.7,8.5-11.2,8.5
			c-7.7,0-11.8-4.8-11.8-12.2c0-7.6,4-13.1,12-13.1c8.6,0,11,6.2,11,13.8H83.9z M90.4,56.5c-4,0-6,3.2-6.3,6.8h12
			C96.1,59.7,94.4,56.5,90.4,56.5z"/>
		<path class="st3" d="M123.6,77.7V64.6c0-3.8-0.3-7.4-5-7.4c-5.1,0-6,5.2-6,8.9v11.7H107V58.9c0-1.8-0.1-3.6-0.1-5.3h5.5l0.1,3.6
			c2-2.7,4.4-4,7.9-4c6.1,0,8.7,3.4,8.7,9.2v15.3H123.6z"/>
		<path class="st3" d="M146.7,78.3c-7.9,0-12.1-5-12.1-12.5c0-7.6,4.5-13,12.4-13c5.7,0,10,2.7,10.6,8.8h-5.5
			c-0.2-3.1-1.9-5.2-5.1-5.2c-5.1,0-6.6,4.8-6.6,9.2c0,4.1,1.5,9.1,6.4,9.1c3.4,0,5.1-2.3,5.3-5.6h5.6
			C157.6,75.1,152.9,78.3,146.7,78.3z"/>
		<path class="st3" d="M179.2,77.7V64.5c0-3.8-0.3-7.4-5-7.4c-4.5,0-6,3.9-6,7.9v12.7h-5.6V43h5.6v14c2-2.6,4.5-3.9,7.8-3.9
			c6.2,0,8.8,3.3,8.8,9.2v15.4H179.2z"/>
	</g>
	<g>
		<path class="st4" d="M417.3,254.3c-9.9,0-15.1-6.3-15.1-15.7c0-9.5,5.6-16.3,15.5-16.3c7.1,0,12.5,3.4,13.2,11h-6.8
			c-0.2-3.9-2.4-6.5-6.4-6.5c-6.4,0-8.3,6.1-8.3,11.5c0,5.1,1.9,11.4,8,11.4c4.2,0,6.4-2.9,6.6-7h7
			C430.9,250.3,425,254.3,417.3,254.3z"/>
		<path class="st4" d="M435.8,216.4v-6.2h7.4v6.2H435.8z M436,253.6v-30.3h7v30.3H436z"/>
		<path class="st4" d="M455.4,239.8v0.5c0,5,2.6,9.5,8.1,9.5c3.9,0,6.5-2.3,7.1-6.2h6.7c-1.1,7.5-7.1,10.6-14,10.6
			c-9.7,0-14.7-6.1-14.7-15.3c0-9.5,5-16.3,15.1-16.3c10.8,0,13.8,7.8,13.8,17.2H455.4z M463.5,227c-5,0-7.5,4-7.9,8.5h15.1
			C470.7,231.1,468.5,227,463.5,227z"/>
		<path class="st4" d="M503.8,253.6v-16.4c0-4.8-0.4-9.3-6.3-9.3c-6.4,0-7.4,6.5-7.4,11.1v14.6h-7V230c0-2.2-0.1-4.4-0.2-6.7h6.9
			l0.1,4.6c2.5-3.4,5.5-5,9.9-5c7.7,0,10.9,4.2,10.9,11.5v19.1H503.8z"/>
		<path class="st4" d="M531.6,254.3c-9.9,0-15.1-6.3-15.1-15.7c0-9.5,5.6-16.3,15.5-16.3c7.1,0,12.5,3.4,13.2,11h-6.8
			c-0.2-3.9-2.4-6.5-6.4-6.5c-6.4,0-8.3,6.1-8.3,11.5c0,5.1,1.9,11.4,8,11.4c4.2,0,6.4-2.9,6.6-7h7
			C545.1,250.3,539.3,254.3,531.6,254.3z"/>
		<path class="st4" d="M554.9,239.8v0.5c0,5,2.6,9.5,8.1,9.5c3.9,0,6.5-2.3,7.1-6.2h6.7c-1.1,7.5-7.1,10.6-14,10.6
			c-9.7,0-14.7-6.1-14.7-15.3c0-9.5,5-16.3,15.1-16.3c10.8,0,13.8,7.8,13.8,17.2H554.9z M563,227c-5,0-7.5,4-7.9,8.5h15.1
			C570.2,231.1,568,227,563,227z"/>
	</g>
	<g>
		<path class="st5" d="M419,205.2c-4.2,0-6.9-1.4-9.4-4.7V216h-7v-33.6c0-2.6-0.1-5.3-0.2-8h6.8l0.2,4.8c2.3-3.7,5.6-5.5,10.1-5.5
			c9,0,13,7.3,13,15.3C432.5,197.2,428.2,205.2,419,205.2z M417.6,178.3c-6.2,0-8.2,6-8.2,11.3c0,5,1.6,11,7.6,11
			c6.3,0,8.2-5.9,8.2-11.3C425.3,184.4,423.6,178.3,417.6,178.3z"/>
		<path class="st5" d="M444,190.9v0.5c0,5,2.6,9.5,8.1,9.5c3.9,0,6.5-2.3,7.1-6.2h6.7c-1.1,7.5-7.1,10.6-14,10.6
			c-9.7,0-14.7-6.1-14.7-15.3c0-9.5,5-16.3,15.1-16.3c10.8,0,13.8,7.8,13.8,17.2H444z M452.1,178.1c-5,0-7.5,4-7.9,8.5h15.1
			C459.3,182.1,457.1,178.1,452.1,178.1z"/>
		<path class="st5" d="M493.6,204.6v-16.4c0-4.8-0.4-9.3-6.3-9.3c-6.4,0-7.4,6.5-7.4,11.1v14.6h-7V181c0-2.2-0.1-4.4-0.2-6.7h6.9
			l0.1,4.6c2.5-3.4,5.5-5,9.9-5c7.7,0,10.9,4.2,10.9,11.5v19.1H493.6z"/>
	</g>
</g>
</svg>
