<?xml version="1.0" encoding="utf-8"?>
<!-- Generator: Adobe Illustrator 22.0.1, SVG Export Plug-In . SVG Version: 6.00 Build 0)  -->
<svg version="1.1" xmlns="http://www.w3.org/2000/svg" xmlns:xlink="http://www.w3.org/1999/xlink" x="0px" y="0px"
	 viewBox="0 0 522 250.5" style="enable-background:new 0 0 522 250.5;" xml:space="preserve">
<style type="text/css">
	.st0{fill:#F0E059;stroke:#1D1D1B;stroke-miterlimit:10;}
	.st1{fill:#6BC0B3;stroke:#1D1D1B;stroke-miterlimit:10;}
	.st2{fill:#61CDBB;stroke:#1D1D1B;stroke-miterlimit:10;}
	.st3{fill:#F1E15B;stroke:#1D1D1B;stroke-width:0.25;stroke-miterlimit:10;}
	.st4{font-family:'LTUnivers-BasicRegular';}
	.st5{font-size:42.2794px;}
	.st6{fill:#F0E059;stroke:#1D1D1B;stroke-width:0.25;stroke-miterlimit:10;}
	.st7{fill:#6BC0B3;stroke:#1D1D1B;stroke-width:0.25;stroke-miterlimit:10;}
</style>
<g id="Symboles">
	<path class="st0" d="M316.2,143.6c20.9,7.4,36.2,26.1,36.2,49.7v0.6c0,33.3-26.4,56.6-60.8,56.6s-60.8-23.3-60.8-56.6v-0.6
		c0-23.6,15.7-41.4,36.2-49.7c-16.1-8-30.6-23-30.6-46.8v-0.6c0-31.3,26.9-52.6,55.2-52.6c22.6,0,44.4,13.6,52.1,35.1L332,83.1
		c-5.6-15.6-21.3-26-40.3-26c-23.8,0-42.5,16.4-42.5,39.1v0.6c0,24.7,19.7,41.7,42.8,41.7C301,139,309.7,141.2,316.2,143.6z"/>
	<path class="st1" d="M339.8,194.4v-0.6c0-25-21.5-43.1-48.1-43.1c-26.6,0-48.1,18.1-48.1,43.1v0.6c0,22.7,18,42.5,48.1,42.5
		C321.8,237,339.8,217.1,339.8,194.4z"/>
	<path class="st2" d="M505.9,78.3c-3-9.1-8.4-17.6-15.8-25.4C465.6,27,419.2,9.5,366,9.5c-69.1,0-126.8,29.6-139.9,68.8
		c-0.6,1.9-1.1,3.7-1.6,5.6c-0.4,1.9-0.7,3.9-1,5.9c-0.2,1.8-0.3,3.5-0.3,5.3c0,0.1,0,0.2,0,0.2S3.8,95.2,3.8,89.7
		c0-5.5,204.8-5.5,204.8-5.5s0.9-3.9,1.4-5.8C223.3,33.8,288.1,0,366,0c77.9,0,142.6,33.8,156,78.3c0,0,0.1,2.9-8.5,2.8
		C506.1,81,505.9,78.3,505.9,78.3z"/>
</g>
<g id="Textes">
	<text transform="matrix(1 0 0 1 -6.866455e-05 72.9229)" class="st3 st4 st5">Baromètre</text>
	<g>
		<path class="st6" d="M374.7,196.7c-8.8,0-13.5-5.8-13.5-14.2c0-8.6,4.7-15,13.8-15c6.3,0,10.8,3.2,11.4,9.8h-4.7
			c-0.3-4-2.6-6.3-6.6-6.3c-6.6,0-8.7,5.7-8.7,11.4c0,5.3,2.3,11.1,8.4,11.1c4.1,0,6.7-2.6,7-6.7h4.6l0.2,0.1
			C386,193.4,381.1,196.7,374.7,196.7z"/>
		<path class="st6" d="M392.3,161.1v-4.9h5.4v4.9H392.3z M392.6,196.1v-27.9h4.9v27.9H392.6z"/>
		<path class="st6" d="M409.2,183v0.6c0,5.1,2.8,9.8,8.4,9.8c4,0,6.6-2.4,7.2-6.3h4.6c-1.1,6.6-5.8,9.6-12.2,9.6
			c-8.7,0-12.9-5.8-12.9-14.1c0-8.3,4.2-14.9,13.2-14.9c9.3,0,12,7.2,12,15.3H409.2z M417.4,171c-5.1,0-7.7,4.2-8.1,8.8h15.4
			C424.8,175.3,422.5,171,417.4,171z"/>
		<path class="st6" d="M455.3,196.1v-15.4c0-4.9-0.6-9-6.5-9c-6,0-7.7,5.5-7.7,10.6v13.9h-4.9v-20.7c0-2.4-0.1-5.6-0.2-7.2h4.8
			l0.2,4.5c2.3-3.2,5.1-4.8,9.1-4.8c7.3,0,9.9,4,9.9,10.9v17.3H455.3z"/>
		<path class="st6" d="M480.6,196.7c-8.8,0-13.5-5.8-13.5-14.2c0-8.6,4.7-15,13.8-15c6.3,0,10.8,3.2,11.4,9.8h-4.7
			c-0.3-4-2.6-6.3-6.6-6.3c-6.6,0-8.7,5.7-8.7,11.4c0,5.3,2.3,11.1,8.4,11.1c4.1,0,6.7-2.6,7-6.7h4.6l0.2,0.1
			C491.8,193.4,486.9,196.7,480.6,196.7z"/>
		<path class="st6" d="M501.3,183v0.6c0,5.1,2.8,9.8,8.4,9.8c4,0,6.6-2.4,7.2-6.3h4.6c-1.1,6.6-5.8,9.6-12.2,9.6
			c-8.7,0-12.9-5.8-12.9-14.1c0-8.3,4.2-14.9,13.2-14.9c9.3,0,12,7.2,12,15.3H501.3z M509.5,171c-5.1,0-7.7,4.2-8.1,8.8h15.4
			C516.9,175.3,514.6,171,509.5,171z"/>
	</g>
	<g>
		<path class="st7" d="M380.5,236.3l-0.2-4.4c-2.3,3.2-5,4.7-9,4.7c-7.3,0-10-4-10-10.9v-17.3h4.9v15.4c0,4.9,0.6,9,6.5,9
			c5.8,0,7.7-4.7,7.7-9.8v-14.7h4.9V222c0,4.7-0.1,9.5,0.1,14.3H380.5z"/>
		<path class="st7" d="M408.1,236.3H403l-11.4-27.9h5.2l9,23.2l8.8-23.2h4.8L408.1,236.3z"/>
		<path class="st7" d="M428,223.3v0.6c0,5.1,2.8,9.8,8.4,9.8c4,0,6.6-2.4,7.2-6.3h4.6c-1.1,6.6-5.8,9.6-12.2,9.6
			c-8.7,0-12.9-5.8-12.9-14.1c0-8.3,4.2-14.9,13.2-14.9c9.3,0,12,7.2,12,15.3H428z M436.2,211.3c-5.1,0-7.7,4.2-8.1,8.8h15.4
			C443.6,215.5,441.2,211.3,436.2,211.3z"/>
		<path class="st7" d="M469.1,212.7c-5.7,0-7.6,3.3-7.6,8.6v15h-4.9v-19.7c0-2.7-0.1-5.5-0.2-8.2h4.7l0.2,4.5c2-3.3,4.7-4.6,8.5-4.6
			c0.5,0,1,0.1,1.5,0.1v4.6C470.7,212.9,469.9,212.7,469.1,212.7z"/>
		<path class="st7" d="M486.6,236.6c-4.5,0-6.8-1.8-6.8-6.5v-18.3h-5.5v-3.4h5.5V203l4.9-2v7.4h6.2v3.4h-6.2v16.4
			c0,3.1,0.3,4.6,3.8,4.6c0.9,0,1.7-0.2,2.6-0.3v3.7C489.5,236.5,488.1,236.6,486.6,236.6z"/>
		<path class="st7" d="M501.2,223.3v0.6c0,5.1,2.8,9.8,8.4,9.8c4,0,6.6-2.4,7.2-6.3h4.6c-1.1,6.6-5.8,9.6-12.2,9.6
			c-8.7,0-12.9-5.8-12.9-14.1c0-8.3,4.2-14.9,13.2-14.9c9.3,0,12,7.2,12,15.3H501.2z M509.4,211.3c-5.1,0-7.7,4.2-8.1,8.8h15.4
			C516.8,215.5,514.5,211.3,509.4,211.3z"/>
	</g>
</g>
</svg>
